<?xml version="1.0" encoding="UTF-8"?>
<svg version="1.1" xmlns="http://www.w3.org/2000/svg" width="227" height="246">
<path d="M0 0 C74.91 0 149.82 0 227 0 C227 81.18 227 162.36 227 246 C152.09 246 77.18 246 0 246 C0 164.82 0 83.64 0 0 Z " fill="#F4F5F6" transform="translate(0,0)"/>
<path d="M0 0 C74.91 0 149.82 0 227 0 C227 81.18 227 162.36 227 246 C152.09 246 77.18 246 0 246 C0 164.82 0 83.64 0 0 Z M82.8125 27.25 C81.79220703 27.83136719 80.77191406 28.41273437 79.72070312 29.01171875 C76.81147107 30.67044281 73.90528759 32.33437958 71 34 C69.73322125 34.72421786 68.46632009 35.4482217 67.19921875 36.171875 C65.06275964 37.39270878 62.92734498 38.61537213 60.79296875 39.83984375 C57.67979547 41.61942088 54.55357048 43.37515665 51.42578125 45.12890625 C50.41966797 45.69416016 49.41355469 46.25941406 48.37695312 46.84179688 C46.39663103 47.95375593 44.41495114 49.06330184 42.43164062 50.16992188 C21.95496862 61.38471554 21.95496862 61.38471554 10.78543091 81.05789185 C9.01656059 88.88555781 9.4068266 97.05038989 9.43359375 105.02734375 C9.4283452 106.94820962 9.42206427 108.86907291 9.41481018 110.78993225 C9.40446016 114.79652114 9.40888933 118.80275366 9.42358398 122.80932617 C9.44076507 127.90743303 9.41725598 133.00441196 9.38209438 138.10239315 C9.3599844 142.06363693 9.36159452 146.02461643 9.3698597 149.98590279 C9.37067175 151.86390991 9.36395334 153.74193793 9.34908867 155.6198864 C9.25539984 169.59444968 10.02474952 183.32018477 20.44140625 193.9140625 C26.56488372 198.90633269 33.54598208 202.58674652 40.46972656 206.33813477 C47.76067735 210.29125917 54.95189859 214.39976303 62.125 218.5625 C68.70320987 222.37634075 75.28140322 226.18162678 81.93994141 229.85375977 C84.01744274 231.00970534 86.0766146 232.19334159 88.1328125 233.38671875 C88.79410156 233.76763672 89.45539063 234.14855469 90.13671875 234.54101562 C91.47318478 235.31164977 92.80648852 236.0877918 94.13671875 236.86914062 C102.7257059 241.78553738 111.20774535 243.50040546 120.953125 241.34765625 C126.2394951 239.73545176 130.93362924 237.58825786 135.67578125 234.7578125 C136.7212915 234.13801514 137.76680176 233.51821777 138.84399414 232.87963867 C139.88547607 232.25935791 140.92695801 231.63907715 142 231 C143.85814699 229.91326215 145.71748635 228.82856 147.578125 227.74609375 C150.49854223 226.04266598 153.41879813 224.33896438 156.33862305 222.63452148 C161.7231918 219.49183964 167.11057714 216.35418971 172.50390625 213.2265625 C173.56125977 212.61240479 174.61861328 211.99824707 175.70800781 211.36547852 C177.71020019 210.20267648 179.71338313 209.04157758 181.71777344 207.88256836 C202.03406122 196.62515524 202.03406122 196.62515524 214.13989258 177.57397461 C216.00589918 169.82022196 215.57006127 161.77523375 215.53125 153.84375 C215.53395 151.89041959 215.53783663 149.9370905 215.54284668 147.98376465 C215.54871783 143.90554916 215.54025601 139.82768599 215.52148438 135.74951172 C215.49869639 130.54805194 215.51183231 125.34741802 215.53577423 120.14598846 C215.55029688 116.11710499 215.54559669 112.08841412 215.53526306 108.05952454 C215.53261361 106.1427653 215.53580207 104.225988 215.54518127 102.30924988 C215.59815103 88.44512111 214.85714337 76.6965071 205 66 C199.59212013 60.67731381 193.75125965 56.82672892 187.125 53.1875 C186.20372314 52.67106934 185.28244629 52.15463867 184.33325195 51.62255859 C181.5610311 50.07148898 178.78188277 48.53366054 176 47 C173.77302516 45.76867954 171.5463258 44.53686347 169.31982422 43.3046875 C167.8937349 42.51571755 166.46697183 41.72796425 165.03955078 40.94140625 C157.44464083 36.73633378 149.96588312 32.3326853 142.49682617 27.90869141 C128.33316254 19.43603405 128.33316254 19.43603405 112.375 16.6875 C111.22064453 16.64399414 111.22064453 16.64399414 110.04296875 16.59960938 C99.68898687 16.48687758 91.54139617 22.23713624 82.8125 27.25 Z " fill="#F6F6F6" transform="translate(0,0)"/>
<path d="M0 0 C0.79591553 0.01047363 1.59183105 0.02094727 2.41186523 0.03173828 C8.76261688 0.22774513 13.56191216 1.26094392 19.125 4.4375 C19.97868164 4.92138184 19.97868164 4.92138184 20.84960938 5.41503906 C24.38017528 7.42864928 27.87659387 9.49480414 31.359375 11.58984375 C36.42705217 14.6336306 41.5515939 17.57319107 46.6875 20.5 C47.57542236 21.00692383 48.46334473 21.51384766 49.37817383 22.03613281 C54.11596578 24.73697461 58.86512047 27.41601662 63.62817383 30.07202148 C66.80250291 31.84528345 69.96698371 33.63536185 73.125 35.4375 C74.00623535 35.93926758 74.00623535 35.93926758 74.90527344 36.45117188 C87.7137878 43.81337677 98.41342676 51.54683342 102.68154335 66.37043095 C103.42290402 69.82610963 103.29906696 73.33531805 103.31787109 76.85522461 C103.33013733 78.12687973 103.33013733 78.12687973 103.34265137 79.42422485 C103.36745497 82.22942411 103.38401428 85.03457269 103.3984375 87.83984375 C103.40376118 88.80184755 103.40908485 89.76385136 103.41456985 90.75500679 C103.44128782 95.85334602 103.46066149 100.95166095 103.47509766 106.05004883 C103.48839834 110.25079306 103.51618135 114.4510471 103.55712891 118.65161133 C103.6067196 123.73969494 103.63125166 128.82733641 103.63832474 133.91565132 C103.6449962 135.84476105 103.66010969 137.77386252 103.68421555 139.70283318 C103.83481062 152.48972319 103.68772727 165.90081958 94.16015625 175.76953125 C86.1186876 182.36013992 76.71497022 187.32397494 67.6875 192.41015625 C63.98379439 194.50422159 60.33204748 196.67994004 56.6875 198.875 C56.06786377 199.24794189 55.44822754 199.62088379 54.80981445 200.00512695 C52.26509781 201.53881584 49.72228659 203.07561725 47.18115234 204.61523438 C39.25980936 209.41364489 31.32796098 214.12938003 23.125 218.4375 C22.24972656 218.9015625 21.37445313 219.365625 20.47265625 219.84375 C11.33146068 224.57242861 2.68376693 227.24338566 -7.60546875 224.78515625 C-13.6643874 222.74803064 -19.00987107 219.78350512 -24.4609375 216.48046875 C-28.44379355 214.09713498 -32.49538582 211.86026795 -36.5625 209.625 C-43.18871053 205.96657736 -49.74193705 202.20445562 -56.24853516 198.33764648 C-60.2508887 195.96428694 -64.27437147 193.63622513 -68.328125 191.3515625 C-69.72550903 190.56241455 -69.72550903 190.56241455 -71.15112305 189.75732422 C-72.95463874 188.74123678 -74.7606415 187.72954594 -76.56958008 186.72314453 C-88.40478374 180.04605522 -96.78558817 173.49714486 -101.0456543 160.18771362 C-102.77010521 152.38992882 -102.44585928 144.42276039 -102.40625 136.47265625 C-102.40895114 134.54796656 -102.4128387 132.62327821 -102.41784668 130.69859314 C-102.42371391 126.68182268 -102.41526983 122.66541018 -102.39648438 118.64868164 C-102.37371208 113.53375982 -102.38682488 108.41967861 -102.41077423 103.30478764 C-102.42532086 99.33501506 -102.42058561 95.36543737 -102.41026306 91.39565849 C-102.40761939 89.51125422 -102.41078113 87.62683149 -102.42018127 85.74244881 C-102.47643223 71.29945922 -102.01519263 58.08432911 -91.30078125 47.1953125 C-84.79688806 41.60442322 -76.8554608 37.77440223 -69.33251953 33.75537109 C-66.20816474 32.07990247 -63.13530339 30.33077581 -60.0625 28.5625 C-58.98613281 27.94761719 -57.90976562 27.33273438 -56.80078125 26.69921875 C-49.4455503 22.4737887 -42.12880645 18.18137239 -34.8046875 13.90234375 C-33.83241211 13.33628418 -32.86013672 12.77022461 -31.85839844 12.18701172 C-29.81272484 10.98739658 -27.77463754 9.7747778 -25.74316406 8.55126953 C-17.17029135 3.42504157 -10.14241814 -0.14112323 0 0 Z M-12.75 18.8125 C-13.57935059 19.26367188 -14.40870117 19.71484375 -15.26318359 20.1796875 C-22.8713663 24.35093559 -30.35276239 28.73800906 -37.79541016 33.19628906 C-40.5532343 34.84230666 -43.32449075 36.46489592 -46.09619141 38.08740234 C-49.69436872 40.19523024 -53.28504072 42.31571392 -56.875 44.4375 C-57.73722168 44.94667969 -58.59944336 45.45585938 -59.48779297 45.98046875 C-62.20287896 47.58667181 -64.91436546 49.19879801 -67.625 50.8125 C-68.47102783 51.31249512 -69.31705566 51.81249023 -70.1887207 52.32763672 C-79.91915427 57.93075429 -79.91915427 57.93075429 -85.44476795 67.35698795 C-86.16356276 70.83292906 -86.02226471 74.35520852 -86.02026367 77.89038086 C-86.02362228 78.74124771 -86.0269809 79.59211456 -86.03044128 80.46876526 C-86.03993615 83.27997296 -86.04189358 86.09112102 -86.04296875 88.90234375 C-86.04618205 90.85763066 -86.04954618 92.81291733 -86.05305481 94.76820374 C-86.0590422 98.86622678 -86.06089508 102.96422875 -86.06030273 107.06225586 C-86.06020107 112.31248164 -86.07385983 117.56257233 -86.09107494 122.81276608 C-86.10219418 126.85080079 -86.10422197 130.88880282 -86.10369301 134.92685127 C-86.10487299 136.86252877 -86.10929575 138.79820712 -86.11702538 140.73386955 C-86.12682481 143.44108422 -86.12394751 146.1480052 -86.11791992 148.85522461 C-86.12353943 149.65382904 -86.12915894 150.45243347 -86.13494873 151.27523804 C-86.11146628 155.42666944 -85.84980202 158.74702385 -83.875 162.4375 C-81.72420053 164.55980858 -81.72420053 164.55980858 -78.875 166.4375 C-78.22660156 166.89769531 -77.57820313 167.35789063 -76.91015625 167.83203125 C-73.22292716 170.6123376 -73.22292716 170.6123376 -68.86328125 171.2578125 C-66.55899089 170.30712296 -65.0001878 169.13878592 -63.125 167.5 C-62.51140625 166.97535156 -61.8978125 166.45070312 -61.265625 165.91015625 C-59.64614437 164.53272384 -59.64614437 164.53272384 -59.875 162.4375 C-59.00681641 162.06044922 -59.00681641 162.06044922 -58.12109375 161.67578125 C-55.59216323 160.28157086 -53.9406954 158.69959642 -51.9375 156.625 C-51.23625 155.90441406 -50.535 155.18382812 -49.8125 154.44140625 C-49.173125 153.78011719 -48.53375 153.11882812 -47.875 152.4375 C-46.6684375 151.261875 -46.6684375 151.261875 -45.4375 150.0625 C-43.0182481 147.58424195 -40.73232193 145.03064878 -38.4375 142.4375 C-35.12419791 138.7252719 -31.81477941 135.46809955 -27.875 132.4375 C-24.33315946 133.935971 -22.14723438 135.98665885 -19.5 138.75 C-16.95717891 141.35534947 -14.45363304 143.8938157 -11.625 146.1875 C-6.0953692 150.71174338 -1.52223672 156.04027695 3.125 161.4375 C6.32068488 160.03000646 8.43794304 158.36045367 10.88037109 155.87744141 C11.60147064 155.14973541 12.32257019 154.42202942 13.06552124 153.67227173 C13.83538361 152.88581268 14.60524597 152.09935364 15.3984375 151.2890625 C16.19980133 150.48012543 17.00116516 149.67118835 17.82681274 148.83773804 C21.25344021 145.37843594 24.66819965 141.90750353 28.08398438 138.4375 C30.5805088 135.90473878 33.08305684 133.37804015 35.5859375 130.8515625 C36.3517514 130.06915192 37.11756531 129.28674133 37.90658569 128.48062134 C41.75593787 124.59630848 45.42449574 121.2470075 50.125 118.4375 C51.61447154 125.42288256 51.94148287 131.74492774 49.125 138.4375 C42.76252098 147.71359485 33.51851005 155.28892397 25.15527344 162.70874023 C23.16244788 164.47717918 21.29727191 166.27156655 19.41503906 168.16821289 C17.125 170.4375 17.125 170.4375 14.125 172.4375 C14.125 173.0975 14.125 173.7575 14.125 174.4375 C13.465 174.4375 12.805 174.4375 12.125 174.4375 C10.54659428 175.99455194 10.54659428 175.99455194 9 177.9375 C8.46117188 178.5871875 7.92234375 179.236875 7.3671875 179.90625 C6.95726563 180.4115625 6.54734375 180.916875 6.125 181.4375 C2.879387 180.01675676 0.7623841 178.29987319 -1.703125 175.76953125 C-2.42113281 175.04056641 -3.13914062 174.31160156 -3.87890625 173.56054688 C-4.62011719 172.79806641 -5.36132812 172.03558594 -6.125 171.25 C-10.97631568 166.28235615 -15.85038112 161.45564358 -21.13964844 156.9519043 C-22.79261014 155.50939987 -24.34326286 154.00714852 -25.875 152.4375 C-29.84930799 154.03521175 -32.50257231 156.80876883 -35.4453125 159.8125 C-35.96761444 160.33763184 -36.48991638 160.86276367 -37.02804565 161.40380859 C-38.69013384 163.07705382 -40.34512626 164.75712224 -42 166.4375 C-43.12063036 167.56816779 -44.24171932 168.69838126 -45.36328125 169.828125 C-47.41447484 171.89563905 -49.46310153 173.96561866 -51.50830078 176.0390625 C-52.95940417 177.5096257 -54.4141343 178.9766343 -55.875 180.4375 C-34.55192083 193.24610745 -34.55192083 193.24610745 -12.875 205.4375 C-11.89152588 205.97733521 -11.89152588 205.97733521 -10.88818359 206.52807617 C-4.42857188 209.94890437 0.82733745 210.84637628 8.125 209.4375 C13.05728045 207.5027092 17.49646086 204.60276588 21.9609375 201.78466797 C24.8979393 199.95633133 27.89672215 198.24570496 30.90063477 196.53027344 C42.3852642 189.9662641 53.77134074 183.22489751 65.125 176.4375 C66.34485596 175.71071045 66.34485596 175.71071045 67.58935547 174.96923828 C69.81654866 173.63644802 72.03474532 172.29001753 74.25 170.9375 C74.89477295 170.55263428 75.5395459 170.16776855 76.20385742 169.77124023 C81.2116181 166.67603885 84.99764598 162.98039203 87.125 157.4375 C87.32627896 154.57292117 87.41875181 151.80520986 87.41552734 148.94042969 C87.42224457 148.08462814 87.42896179 147.2288266 87.43588257 146.34709167 C87.45487975 143.51779368 87.45878797 140.68873281 87.4609375 137.859375 C87.46736542 135.88885399 87.47409378 133.91833394 87.48110962 131.94781494 C87.49308754 127.81528512 87.49679003 123.68283892 87.49560547 119.55029297 C87.49540253 114.26656615 87.522677 108.98337868 87.55714989 103.69977951 C87.57944101 99.62814902 87.58344229 95.55664772 87.58238602 91.48496246 C87.5847397 89.53779496 87.59355009 87.59062377 87.60905075 85.64351654 C87.62875061 82.91268236 87.62285663 80.18300309 87.61083984 77.45214844 C87.62207886 76.6549791 87.63331787 75.85780975 87.64489746 75.03648376 C87.57514205 68.76624299 85.91805474 63.19958961 81.36328125 58.6953125 C80.72777344 58.32148437 80.09226563 57.94765625 79.4375 57.5625 C78.64988281 57.08554688 77.86226562 56.60859375 77.05078125 56.1171875 C75.60251953 55.28574219 75.60251953 55.28574219 74.125 54.4375 C72.86749351 53.69178129 71.61106514 52.94424285 70.35546875 52.1953125 C66.71251531 50.03048485 63.05413508 47.89307232 59.39208984 45.76074219 C56.44899855 44.0429353 53.51487007 42.31015235 50.58056641 40.57739258 C43.71559292 36.52550973 36.82383445 32.52794327 29.890625 28.59375 C26.96999813 26.93030425 24.06927136 25.23482196 21.171875 23.53125 C20.31577637 23.02972412 19.45967773 22.52819824 18.57763672 22.01147461 C16.88939626 21.02152417 15.20342752 20.02768694 13.52001953 19.02954102 C12.74770996 18.57764404 11.97540039 18.12574707 11.1796875 17.66015625 C10.15077393 17.05312866 10.15077393 17.05312866 9.10107422 16.43383789 C1.12559704 12.41259717 -5.46245224 14.72630542 -12.75 18.8125 Z " fill="#093153" transform="translate(111.875,16.5625)"/>
<path d="M0 0 C4.39978169 2.08669736 8.55340417 4.65174147 12.73828125 7.1328125 C15.38441848 8.68619929 18.04760328 10.17283769 20.75 11.625 C28.99046958 16.08510944 37.10759218 20.76451392 45.22265625 25.44775391 C47.63220181 26.83378775 50.04970593 28.20485953 52.46875 29.57421875 C53.83386001 30.36106614 55.19847835 31.14876742 56.5625 31.9375 C57.18801758 32.28659424 57.81353516 32.63568848 58.45800781 32.99536133 C62.61168275 35.43017221 62.61168275 35.43017221 63.703125 38.1875 C63.73921875 38.765 63.7753125 39.3425 63.8125 39.9375 C64.451875 40.040625 65.09125 40.14375 65.75 40.25 C66.430625 40.476875 67.11125 40.70375 67.8125 40.9375 C68.1425 41.9275 68.4725 42.9175 68.8125 43.9375 C68.4825 44.5975 68.1525 45.2575 67.8125 45.9375 C66.8225 45.9375 65.8325 45.9375 64.8125 45.9375 C64.8125 46.5975 64.8125 47.2575 64.8125 47.9375 C63.8225 48.4325 63.8225 48.4325 62.8125 48.9375 C62.79268066 50.1335083 62.77286133 51.3295166 62.75244141 52.56176758 C62.67641728 56.99557694 62.58769503 61.42905674 62.49511719 65.86254883 C62.45681423 67.78207904 62.42196367 69.70168135 62.390625 71.62133789 C62.34500298 74.3793313 62.2870042 77.13682777 62.2265625 79.89453125 C62.21501129 80.75399857 62.20346008 81.61346588 62.19155884 82.49897766 C62.1617543 83.69988289 62.1617543 83.69988289 62.13134766 84.92504883 C62.11802399 85.6289827 62.10470032 86.33291656 62.0909729 87.05818176 C61.8125 88.9375 61.8125 88.9375 59.8125 91.9375 C59.8125 77.0875 59.8125 62.2375 59.8125 46.9375 C44.9625 47.2675 30.1125 47.5975 14.8125 47.9375 C14.4825 52.5575 14.1525 57.1775 13.8125 61.9375 C20.4125 61.9375 27.0125 61.9375 33.8125 61.9375 C32.8225 62.9275 31.8325 63.9175 30.8125 64.9375 C30.1525 64.9375 29.4925 64.9375 28.8125 64.9375 C28.544375 65.576875 28.27625 66.21625 28 66.875 C26.8125 68.9375 26.8125 68.9375 23.8125 69.9375 C23.8125 70.5975 23.8125 71.2575 23.8125 71.9375 C19.51017442 76.70494186 19.51017442 76.70494186 15.8125 77.9375 C15.8125 78.5975 15.8125 79.2575 15.8125 79.9375 C13.9375 82.0625 13.9375 82.0625 11.8125 83.9375 C11.1525 83.9375 10.4925 83.9375 9.8125 83.9375 C9.3175 85.4225 9.3175 85.4225 8.8125 86.9375 C7.0703125 88.65625 7.0703125 88.65625 4.9375 90.4375 C1.95691725 92.94059558 1.95691725 92.94059558 -0.8125 95.66796875 C-1.26625 96.08691406 -1.72 96.50585938 -2.1875 96.9375 C-4.3125 96.75 -4.3125 96.75 -6.1875 95.9375 C-6.5175 95.2775 -6.8475 94.6175 -7.1875 93.9375 C-8.6725 93.4425 -8.6725 93.4425 -10.1875 92.9375 C-11.9765625 91.1953125 -11.9765625 91.1953125 -13.8125 89.0625 C-14.42351562 88.36382812 -15.03453125 87.66515625 -15.6640625 86.9453125 C-17.1875 84.9375 -17.1875 84.9375 -18.1875 81.9375 C-19.03828125 81.52564453 -19.03828125 81.52564453 -19.90625 81.10546875 C-23.68289938 79.171876 -26.30432471 75.78204566 -29.12109375 72.66210938 C-30.66858289 70.97583601 -30.66858289 70.97583601 -33.1875 68.9375 C-36.52978 69.23332486 -38.17640821 70.56608173 -40.46484375 72.921875 C-41.06103516 73.52773437 -41.65722656 74.13359375 -42.27148438 74.7578125 C-42.88314453 75.39460938 -43.49480469 76.03140625 -44.125 76.6875 C-44.73279297 77.30882813 -45.34058594 77.93015625 -45.96679688 78.5703125 C-48.2152391 80.86969031 -50.46129616 83.17046062 -52.67236328 85.50585938 C-53.80733809 86.68619988 -54.99282392 87.81762475 -56.1875 88.9375 C-56.8475 88.9375 -57.5075 88.9375 -58.1875 88.9375 C-58.1875 89.5975 -58.1875 90.2575 -58.1875 90.9375 C-58.8475 90.9375 -59.5075 90.9375 -60.1875 90.9375 C-60.44917969 91.53691406 -60.71085937 92.13632813 -60.98046875 92.75390625 C-62.25970188 95.06811764 -63.45000442 96.23409445 -65.5 97.875 C-69.58029207 101.24567606 -73.22680171 104.74926791 -76.5625 108.875 C-78.98339522 111.85871481 -81.75290314 114.22952167 -84.734375 116.640625 C-86.32037611 117.89530703 -86.32037611 117.89530703 -87.1875 119.9375 C-87.8475 119.9375 -88.5075 119.9375 -89.1875 119.9375 C-89.5175 120.9275 -89.8475 121.9175 -90.1875 122.9375 C-90.8475 122.9375 -91.5075 122.9375 -92.1875 122.9375 C-92.2571524 114.06195201 -92.31038837 105.18649879 -92.34293652 96.31073666 C-92.35856166 92.18891145 -92.37974189 88.06727388 -92.41381836 83.94555664 C-92.44652487 79.96441884 -92.46437671 75.98346101 -92.47213173 72.00219917 C-92.47765505 70.48681368 -92.4884407 68.97143751 -92.50469017 67.45612907 C-92.52661542 65.32592717 -92.52946076 63.19645952 -92.52807617 61.06616211 C-92.53473801 59.8559288 -92.54139984 58.6456955 -92.54826355 57.39878845 C-91.86191249 50.81370243 -89.27125458 46.24763975 -84.1875 41.9375 C-77.21389214 36.93469436 -69.76578714 32.73501807 -62.3125 28.5 C-54.97106721 24.32504084 -47.71489002 20.08794049 -40.6328125 15.48364258 C-37.28833679 13.36896959 -33.84628487 11.47810927 -30.3515625 9.625 C-27.86788393 8.30037143 -25.41296622 6.94374052 -22.9609375 5.5625 C-21.45333904 4.7287795 -19.94552641 3.89544617 -18.4375 3.0625 C-17.72835449 2.65660645 -17.01920898 2.25071289 -16.28857422 1.83251953 C-10.66316663 -1.23504644 -6.27281649 -2.09093883 0 0 Z " fill="#F6F6F6" transform="translate(118.1875,32.0625)"/>
<path d="M0 0 C0.79719955 0.00222061 1.59439911 0.00444122 2.41575623 0.00672913 C3.32925842 0.00684998 4.24276062 0.00697083 5.1839447 0.00709534 C6.15045959 0.0122113 7.11697449 0.01732727 8.11277771 0.02259827 C9.4381958 0.02410889 9.4381958 0.02410889 10.79039001 0.02565002 C14.10489695 0.03089921 17.41938545 0.04486035 20.73387146 0.05775452 C28.13824646 0.07837952 35.54262146 0.09900452 43.17137146 0.12025452 C43.17137146 14.97025452 43.17137146 29.82025452 43.17137146 45.12025452 C38.22137146 45.12025452 33.27137146 45.12025452 28.17137146 45.12025452 C27.84137146 39.18025452 27.51137146 33.24025452 27.17137146 27.12025452 C26.18330505 28.11355774 25.19523865 29.10686096 24.17723083 30.13026428 C20.48223726 33.84346917 16.78384406 37.55327249 13.0844574 41.26210022 C11.48913845 42.86242269 9.89472132 44.46364471 8.30125427 46.06581116 C5.99995815 48.37934821 3.69535075 50.68954351 1.39012146 52.99916077 C0.68770325 53.70674026 -0.01471497 54.41431976 -0.73841858 55.14334106 C-4.71879056 59.1241551 -8.79523127 62.92314782 -13.07460022 66.58154297 C-14.85373165 68.09152718 -14.85373165 68.09152718 -16.41525269 69.81507874 C-17.82862854 71.12025452 -17.82862854 71.12025452 -20.11647034 71.18299866 C-23.96095185 69.67655991 -26.4099008 67.03244297 -29.22315979 64.11634827 C-29.81537827 63.51847 -30.40759674 62.92059174 -31.01776123 62.30459595 C-32.90183323 60.39818434 -34.77150008 58.47832261 -36.64112854 56.55775452 C-37.91819708 55.26061799 -39.19618193 53.9643829 -40.47511292 52.66908264 C-43.60366906 49.49649115 -46.71938043 46.31176624 -49.82862854 43.12025452 C-52.97227161 44.51306609 -55.09124235 46.13838065 -57.5080719 48.57264709 C-58.21237839 49.27710464 -58.91668488 49.98156219 -59.64233398 50.70736694 C-60.76902245 51.84953926 -60.76902245 51.84953926 -61.91847229 53.01478577 C-63.09078148 54.1913398 -63.09078148 54.1913398 -64.28677368 55.3916626 C-66.78462672 57.90070301 -69.27544963 60.41659429 -71.76612854 62.93275452 C-73.4394953 64.61615597 -75.11331833 66.299104 -76.78761292 67.98158264 C-79.86784775 71.07814276 -82.94544068 74.1772757 -86.01979065 77.27967834 C-86.68098907 77.94424042 -87.3421875 78.60880249 -88.02342224 79.29350281 C-89.13978006 80.42318453 -90.24835541 81.56069006 -91.34403992 82.71043396 C-93.52980535 84.98727507 -94.76721312 86.09978271 -97.82862854 87.12025452 C-97.82862854 87.78025452 -97.82862854 88.44025452 -97.82862854 89.12025452 C-102.13095412 93.88769638 -102.13095412 93.88769638 -105.82862854 95.12025452 C-105.82862854 96.77025452 -105.82862854 98.42025452 -105.82862854 100.12025452 C-107.82862854 99.12025452 -107.82862854 99.12025452 -108.44093323 97.33534241 C-109.1254191 93.42454874 -109.05485696 89.51869338 -109.07862854 85.55775452 C-109.10956604 84.2632135 -109.10956604 84.2632135 -109.14112854 82.94252014 C-109.14628479 82.11300842 -109.15144104 81.2834967 -109.15675354 80.42884827 C-109.16609924 79.67402161 -109.17544495 78.91919495 -109.18507385 78.14149475 C-108.7332219 75.57924659 -107.86952899 74.68571087 -105.82862854 73.12025452 C-105.16862854 73.12025452 -104.50862854 73.12025452 -103.82862854 73.12025452 C-103.62237854 72.56337952 -103.41612854 72.00650452 -103.20362854 71.43275452 C-101.6689257 68.85166337 -99.80190172 67.37866749 -97.46534729 65.53431702 C-95.73269964 64.03737561 -94.34371425 62.4507811 -92.89112854 60.68275452 C-90.36394951 57.62770519 -87.62505228 55.1838394 -84.56690979 52.67494202 C-82.12215732 50.48839936 -80.12001871 48.00963057 -78.09034729 45.44056702 C-77.6739801 45.00486389 -77.25761292 44.56916077 -76.82862854 44.12025452 C-76.16862854 44.12025452 -75.50862854 44.12025452 -74.82862854 44.12025452 C-74.82862854 43.46025452 -74.82862854 42.80025452 -74.82862854 42.12025452 C-73.57081604 40.88587952 -73.57081604 40.88587952 -71.70362854 39.37025452 C-68.74326163 36.88736614 -65.9930543 34.2964333 -63.32081604 31.51087952 C-62.7048053 30.87247131 -62.08879456 30.23406311 -61.45411682 29.5763092 C-60.21056028 28.2793325 -58.97697496 26.9727162 -57.75392151 25.65638733 C-57.17529358 25.056651 -56.59666565 24.45691467 -56.00050354 23.83900452 C-55.48584534 23.29179749 -54.97118713 22.74459045 -54.44093323 22.18080139 C-52.82862854 21.12025452 -52.82862854 21.12025452 -50.80787659 21.29115295 C-47.51554936 22.67029977 -45.31381783 25.32960657 -42.89112854 27.87025452 C-42.3787262 28.39619202 -41.86632385 28.92212952 -41.33839417 29.46400452 C-40.3198 30.50977845 -39.3038908 31.55817478 -38.29078674 32.60926819 C-35.26080356 35.74043632 -32.16612528 38.79775763 -29.01612854 41.80775452 C-26.82862854 44.12025452 -26.82862854 44.12025452 -26.82862854 46.12025452 C-25.86956604 46.30587952 -25.86956604 46.30587952 -24.89112854 46.49525452 C-24.21050354 46.70150452 -23.52987854 46.90775452 -22.82862854 47.12025452 C-22.49862854 47.78025452 -22.16862854 48.44025452 -21.82862854 49.12025452 C-17.99790884 48.57300885 -16.45938398 46.83870181 -13.82862854 44.12025452 C-13.16862854 44.12025452 -12.50862854 44.12025452 -11.82862854 44.12025452 C-11.60175354 43.54275452 -11.37487854 42.96525452 -11.14112854 42.37025452 C-9.49663207 39.55111771 -7.39308184 38.10770583 -4.82862854 36.12025452 C-4.16862854 35.13025452 -3.50862854 34.14025452 -2.82862854 33.12025452 C-2.16862854 33.12025452 -1.50862854 33.12025452 -0.82862854 33.12025452 C-0.82862854 32.46025452 -0.82862854 31.80025452 -0.82862854 31.12025452 C3.47369704 26.35281266 3.47369704 26.35281266 7.17137146 25.12025452 C7.17137146 24.46025452 7.17137146 23.80025452 7.17137146 23.12025452 C9.70300043 20.62253129 12.45107051 18.41550844 15.17137146 16.12025452 C9.23137146 15.79025452 3.29137146 15.46025452 -2.82862854 15.12025452 C-2.92628479 4.28041077 -2.92628479 4.28041077 -2.82862854 1.12025452 C-1.82862854 0.12025452 -1.82862854 0.12025452 0 0 Z " fill="#C4A94E" transform="translate(134.82862854003906,78.87974548339844)"/>
<path d="M0 0 C5.83783924 5.39855089 7.89802315 11.5350891 8.34191895 19.42245483 C8.51284722 24.79651151 8.45053966 30.16747488 8.390625 35.54296875 C8.38315233 37.52264328 8.37746425 39.50232527 8.37347412 41.48200989 C8.35829856 46.65899557 8.31908744 51.83552287 8.2746582 57.0123291 C8.23353009 62.30828656 8.21542584 67.60431904 8.1953125 72.90039062 C8.15258449 83.26712701 8.08443244 93.63352519 8 104 C7.01 103.34 6.02 102.68 5 102 C4.68864775 99.50166789 4.57289318 97.24571922 4.58349609 94.74316406 C4.57491074 93.99482803 4.56632538 93.246492 4.55747986 92.47547913 C4.53229253 89.98876681 4.52802509 87.5024536 4.5234375 85.015625 C4.50912118 83.28081045 4.49336302 81.54600725 4.47622681 79.81121826 C4.43425131 75.22660613 4.40935847 70.64206406 4.38873291 66.05731201 C4.35304716 58.76235173 4.29122208 51.46756705 4.23024368 44.1727829 C4.21141083 41.64173893 4.19948822 39.11074078 4.18881226 36.57965088 C4.13604117 27.34117419 3.80777168 18.20918033 3 9 C2.34 9 1.68 9 1 9 C0.67 6.03 0.34 3.06 0 0 Z " fill="#10263C" transform="translate(207,70)"/>
<path d="M0 0 C1.31602523 0.61754259 2.62773556 1.24428742 3.9375 1.875 C4.66839844 2.22304687 5.39929688 2.57109375 6.15234375 2.9296875 C8 4 8 4 9 6 C9.99 6 10.98 6 12 6 C12.33 6.66 12.66 7.32 13 8 C12.67 8.66 12.34 9.32 12 10 C9.61435923 9.42415568 7.33317216 8.77772405 5 8 C4.93941406 8.62648438 4.87882813 9.25296875 4.81640625 9.8984375 C4.73261719 10.71570313 4.64882812 11.53296875 4.5625 12.375 C4.48128906 13.18710938 4.40007812 13.99921875 4.31640625 14.8359375 C4 17 4 17 3 19 C3.66 19 4.32 19 5 19 C5 19.66 5 20.32 5 21 C5.66 21 6.32 21 7 21 C7.06058594 21.88042969 7.12117188 22.76085937 7.18359375 23.66796875 C7.30927734 25.41013672 7.30927734 25.41013672 7.4375 27.1875 C7.51871094 28.33605469 7.59992188 29.48460938 7.68359375 30.66796875 C7.93210363 33.93924752 7.93210363 33.93924752 8.59765625 36.86328125 C8.79681641 37.92095703 8.79681641 37.92095703 9 39 C8.67 39.33 8.34 39.66 8 40 C7.76636119 41.84891946 7.58696365 43.70488031 7.4375 45.5625 C7.31181641 47.08037109 7.31181641 47.08037109 7.18359375 48.62890625 C7.12300781 49.41136719 7.06242187 50.19382813 7 51 C6.67 51 6.34 51 6 51 C5.67 68.16 5.34 85.32 5 103 C4.67 103 4.34 103 4 103 C3.99413376 102.01107758 3.98826752 101.02215515 3.98222351 100.00326538 C3.9249633 90.67494008 3.85218439 81.34684715 3.76428509 72.01875877 C3.71959387 67.22329775 3.68033495 62.42792143 3.65356445 57.63232422 C3.62751908 53.00264803 3.58710785 48.37329804 3.53681374 43.74382401 C3.52015338 41.97927539 3.50863393 40.21467037 3.50238609 38.45005417 C3.49273588 35.97465727 3.46466633 33.50009333 3.43237305 31.02490234 C3.43380814 30.29841492 3.43524323 29.57192749 3.4367218 28.82342529 C3.3505582 24.14090089 2.2773576 21.0560854 0 17 C0 16.34 0 15.68 0 15 C-0.515625 14.7525 -1.03125 14.505 -1.5625 14.25 C-4.77184151 12.60418384 -7.87585664 10.8023904 -11 9 C-10.360625 8.896875 -9.72125 8.79375 -9.0625 8.6875 C-8.0415625 8.3471875 -8.0415625 8.3471875 -7 8 C-6.67 7.01 -6.34 6.02 -6 5 C-2.55555556 2 -2.55555556 2 0 2 C0 1.34 0 0.68 0 0 Z " fill="#1A3A54" transform="translate(195,62)"/>
<path d="M0 0 C0.33 0 0.66 0 1 0 C1.70729441 4.99458668 2.01739946 9.04017762 1 14 C1.24641718 15.95073147 1.49453861 17.90128628 1.75678635 19.8499527 C2.11647857 23.02968901 2.08165805 26.16480112 2.03759766 29.36230469 C2.02559578 30.39317451 2.02559578 30.39317451 2.01335144 31.44487 C1.9857613 33.68731691 1.9501803 35.92955051 1.9140625 38.171875 C1.89225907 39.74269131 1.87081107 41.3135126 1.84970093 42.88433838 C1.80440545 46.16237615 1.75520412 49.44032489 1.703125 52.71826172 C1.63668186 56.9168356 1.57947673 61.11547501 1.52509499 65.31422043 C1.48224717 68.55189409 1.43482967 71.78948827 1.38599777 75.02707672 C1.36313463 76.57559543 1.34162124 78.12413469 1.32149124 79.67269135 C1.29265713 81.83365204 1.25774102 83.99443129 1.22119141 86.15527344 C1.20263092 87.38356873 1.18407043 88.61186401 1.16494751 89.87738037 C1.02965591 92.43858433 0.75316801 94.56438958 0 97 C0.66 97 1.32 97 2 97 C2 97.99 2 98.98 2 100 C1.34 100 0.68 100 0 100 C-2.01793523 94.95735274 -2.28606781 90.67157992 -2.25878906 85.3359375 C-2.2622937 84.48638489 -2.26579834 83.63683228 -2.26940918 82.76153564 C-2.27817913 79.96593953 -2.27239409 77.17059849 -2.265625 74.375 C-2.26697301 72.42496696 -2.26891468 70.47493424 -2.27142334 68.52490234 C-2.27436819 64.44300122 -2.27009749 60.36118778 -2.26074219 56.27929688 C-2.24934807 51.0538739 -2.25591096 45.82865641 -2.26788712 40.60324097 C-2.27512295 36.57802794 -2.27280985 32.55286343 -2.26763153 28.52764893 C-2.26629981 26.6011757 -2.267926 24.67469802 -2.27259064 22.74822998 C-2.27768418 20.05338924 -2.26990592 17.35887873 -2.25878906 14.6640625 C-2.26283752 13.87219543 -2.26688599 13.08032837 -2.27105713 12.26446533 C-2.23696199 7.79057471 -1.6875057 4.21693218 0 0 Z " fill="#0E273F" transform="translate(12,79)"/>
<path d="M0 0 C0.79719955 0.00222061 1.59439911 0.00444122 2.41575623 0.00672913 C3.32925842 0.00684998 4.24276062 0.00697083 5.1839447 0.00709534 C6.15045959 0.0122113 7.11697449 0.01732727 8.11277771 0.02259827 C9.4381958 0.02410889 9.4381958 0.02410889 10.79039001 0.02565002 C14.10489695 0.03089921 17.41938545 0.04486035 20.73387146 0.05775452 C28.13824646 0.07837952 35.54262146 0.09900452 43.17137146 0.12025452 C43.17137146 14.97025452 43.17137146 29.82025452 43.17137146 45.12025452 C38.22137146 45.12025452 33.27137146 45.12025452 28.17137146 45.12025452 C28.17137146 39.18025452 28.17137146 33.24025452 28.17137146 27.12025452 C30.17137146 29.12025452 30.17137146 29.12025452 30.36668396 32.37806702 C30.34348083 33.65423889 30.32027771 34.93041077 30.29637146 36.24525452 C30.27832458 37.52658264 30.26027771 38.80791077 30.24168396 40.12806702 C30.21848083 41.11548889 30.19527771 42.10291077 30.17137146 43.12025452 C33.80137146 43.45025452 37.43137146 43.78025452 41.17137146 44.12025452 C41.17137146 29.93025452 41.17137146 15.74025452 41.17137146 1.12025452 C27.64137146 1.12025452 14.11137146 1.12025452 0.17137146 1.12025452 C-0.15862854 5.08025452 -0.48862854 9.04025452 -0.82862854 13.12025452 C0.20777771 13.03646545 1.24418396 12.95267639 2.31199646 12.86634827 C3.68176278 12.76314669 5.05155593 12.66030078 6.42137146 12.55775452 C7.44424255 12.47364319 7.44424255 12.47364319 8.48777771 12.38783264 C11.91342956 12.13839197 14.89838323 11.98145707 18.17137146 13.12025452 C17.84137146 14.11025452 17.51137146 15.10025452 17.17137146 16.12025452 C10.57137146 15.79025452 3.97137146 15.46025452 -2.82862854 15.12025452 C-2.92628479 4.28041077 -2.92628479 4.28041077 -2.82862854 1.12025452 C-1.82862854 0.12025452 -1.82862854 0.12025452 0 0 Z " fill="#B5A45E" transform="translate(134.82862854003906,78.87974548339844)"/>
<path d="M0 0 C0.17545258 3.207633 0.28121626 6.41402324 0.375 9.625 C0.42527344 10.52863281 0.47554687 11.43226563 0.52734375 12.36328125 C0.67307052 19.01813726 0.67307052 19.01813726 -1.36230469 21.98730469 C-3.0234375 23.6484375 -3.0234375 23.6484375 -6 26 C-6.99 25.67 -7.98 25.34 -9 25 C-7.71937515 23.2925002 -6.38232443 21.62626404 -5 20 C-4.34 20 -3.68 20 -3 20 C-3 15.71 -3 11.42 -3 7 C-4.32 7 -5.64 7 -7 7 C-7 7.66 -7 8.32 -7 9 C-7.99 9 -8.98 9 -10 9 C-10.2475 9.5775 -10.495 10.155 -10.75 10.75 C-12.70865418 14.27557753 -15.36663793 16.52111649 -18.5625 18.9375 C-21.1105064 21.09350541 -22.36736441 23.12345158 -24 26 C-24.66 26.33 -25.32 26.66 -26 27 C-26.33 27.66 -26.66 28.32 -27 29 C-27.66 28.67 -28.32 28.34 -29 28 C-29 28.66 -29 29.32 -29 30 C-29.66 30 -30.32 30 -31 30 C-30.67 30.99 -30.34 31.98 -30 33 C-30.99 33 -31.98 33 -33 33 C-34.73368264 34.66719298 -34.73368264 34.66719298 -36.375 36.8125 C-38.99288334 39.95284839 -41.264634 42.18891345 -45 44 C-43.58953708 40.80297102 -41.90743103 38.65902383 -39.43994141 36.19702148 C-38.71223541 35.46623886 -37.98452942 34.73545624 -37.23477173 33.98252869 C-36.44831268 33.20325516 -35.66185364 32.42398163 -34.8515625 31.62109375 C-33.63815689 30.40837547 -33.63815689 30.40837547 -32.40023804 29.17115784 C-30.68943752 27.46337687 -28.97620875 25.7580255 -27.26074219 24.05493164 C-24.63681634 21.44923425 -22.02095278 18.83565201 -19.40625 16.22070312 C-17.74265815 14.56202782 -16.07861072 12.90380929 -14.4140625 11.24609375 C-13.24044662 10.07414711 -13.24044662 10.07414711 -12.04312134 8.87852478 C-10.94210587 7.78707909 -10.94210587 7.78707909 -9.81884766 6.67358398 C-9.17646149 6.03500961 -8.53407532 5.39643524 -7.8722229 4.73851013 C-2.76926318 0 -2.76926318 0 0 0 Z " fill="#10283E" transform="translate(162,135)"/>
<path d="M0 0 C1.33925537 0.03063538 1.33925537 0.03063538 2.70556641 0.06188965 C3.6351416 0.08859741 4.5647168 0.11530518 5.52246094 0.14282227 C6.38339355 0.16348755 7.24432617 0.18415283 8.13134766 0.20544434 C11.33999568 0.28406553 14.54840455 0.37221439 17.75683594 0.45922852 C24.93433594 0.64485352 32.11183594 0.83047852 39.50683594 1.02172852 C39.50683594 16.53172852 39.50683594 32.04172852 39.50683594 48.02172852 C39.17683594 48.02172852 38.84683594 48.02172852 38.50683594 48.02172852 C38.50683594 33.17172852 38.50683594 18.32172852 38.50683594 3.02172852 C23.65683594 3.35172852 8.80683594 3.68172852 -6.49316406 4.02172852 C-6.82316406 8.64172852 -7.15316406 13.26172852 -7.49316406 18.02172852 C-8.15316406 18.02172852 -8.81316406 18.02172852 -9.49316406 18.02172852 C-9.71671013 16.12762874 -9.92136357 14.23129372 -10.11816406 12.33422852 C-10.23417969 11.27848633 -10.35019531 10.22274414 -10.46972656 9.13500977 C-10.49473217 5.81343155 -10.17363908 3.88265991 -8.49316406 1.02172852 C-5.62641598 0.0110809 -3.01786106 -0.07804813 0 0 Z " fill="#F9EFD6" transform="translate(139.4931640625,75.978271484375)"/>
<path d="M0 0 C0.33 0 0.66 0 1 0 C1.2003358 11.23951667 1.38404039 22.47917082 1.54658794 33.71930122 C1.62258857 38.93869329 1.70428933 44.15786567 1.79907227 49.37695312 C1.89035301 54.41479642 1.96658816 59.45266447 2.03244972 64.49090195 C2.06019517 66.41187896 2.09333743 68.33278595 2.13199425 70.25357437 C2.18526506 72.94656876 2.21924228 75.63917458 2.2487793 78.33251953 C2.26891586 79.12446213 2.28905243 79.91640472 2.30979919 80.73234558 C2.337656 85.5391161 1.7256386 88.86110384 -1 93 C-3.5625 93.625 -3.5625 93.625 -6 94 C-7.09166275 95.93330603 -7.09166275 95.93330603 -8 98 C-10.125 99.25 -10.125 99.25 -12 100 C-12.99 99.34 -13.98 98.68 -15 98 C-14.39671875 97.64808594 -13.7934375 97.29617187 -13.171875 96.93359375 C-7.67006968 93.53489788 -4.45664448 91.03925101 -2 85 C-0.61618619 76.23270661 -0.77466375 67.35082558 -0.68359375 58.49609375 C-0.66298947 56.80501335 -0.64199217 55.1139377 -0.62062073 53.42286682 C-0.56575841 48.99905268 -0.51619302 44.57519487 -0.46777344 40.15130615 C-0.41729458 35.62622244 -0.36174706 31.10120117 -0.30664062 26.57617188 C-0.1994983 17.71750142 -0.09795815 8.85877645 0 0 Z " fill="#122B42" transform="translate(200,89)"/>
<path d="M0 0 C1.5410057 2.39406243 2.10267419 3.48919589 1.53125 6.33203125 C-4.22062658 20.16703742 -14.80417384 26.64347399 -28 33 C-28.99 32.34 -29.98 31.68 -31 31 C-25.46540881 27.22641509 -25.46540881 27.22641509 -22.6875 25.875 C-20.8108354 25.11181389 -20.8108354 25.11181389 -20 23 C-19.01 23.33 -18.02 23.66 -17 24 C-16.54625 23.34 -16.0925 22.68 -15.625 22 C-14.820625 21.01 -14.820625 21.01 -14 20 C-13.34 20 -12.68 20 -12 20 C-11.7525 19.195625 -11.505 18.39125 -11.25 17.5625 C-10 15 -10 15 -7.875 14.1875 C-7.25625 14.125625 -6.6375 14.06375 -6 14 C-5.9175 13.46375 -5.835 12.9275 -5.75 12.375 C-4.74051957 9.17831198 -2.85334931 6.78002397 -1 4 C-0.23060319 1.77397385 -0.23060319 1.77397385 0 0 Z " fill="#183249" transform="translate(212,173)"/>
<path d="M0 0 C0.33 0 0.66 0 1 0 C1 30.36 1 60.72 1 92 C0.34 92 -0.32 92 -1 92 C-2.03300166 87.75321538 -2.1336046 83.73753272 -2.125 79.375 C-2.12757812 78.06273437 -2.13015625 76.75046875 -2.1328125 75.3984375 C-2 72 -2 72 -1 69 C-0.88199594 66.77722418 -0.82305674 64.55116449 -0.79467773 62.32543945 C-0.78477814 61.652005 -0.77487854 60.97857056 -0.76467896 60.284729 C-0.73311611 58.06094873 -0.70832725 55.8371471 -0.68359375 53.61328125 C-0.66301971 52.07056628 -0.64202312 50.5278569 -0.62062073 48.9851532 C-0.5654465 44.92622398 -0.51601675 40.86724427 -0.46777344 36.80822754 C-0.41752446 32.66572582 -0.36185613 28.52329734 -0.30664062 24.38085938 C-0.19911591 16.25396819 -0.09765834 8.1270157 0 0 Z " fill="#0D2231" transform="translate(25,84)"/>
<path d="M0 0 C2.8125 -0.1875 2.8125 -0.1875 6 0 C7.5625 1.4375 7.5625 1.4375 9 3 C10.65821773 3.37309899 12.32577014 3.70700977 14 4 C14.99 4.66 15.98 5.32 17 6 C19.96262881 6.49483361 22.93787293 6.46206005 25.9375 6.5 C26.74896484 6.54125 27.56042969 6.5825 28.39648438 6.625 C30.75006739 6.65589198 32.72502639 6.61286393 35 6 C37.41916843 3.08891522 37.41916843 3.08891522 39 0 C39.99 0 40.98 0 42 0 C42 1.32 42 2.64 42 4 C42.66 4.33 43.32 4.66 44 5 C42.58521865 5.64995297 41.16808513 6.29478722 39.75 6.9375 C38.96109375 7.29714844 38.1721875 7.65679687 37.359375 8.02734375 C28.74907485 11.57695424 20.15805136 10.63404148 11.66015625 7.22265625 C7.63788355 5.37394648 3.79056168 3.28369642 0 1 C0 0.67 0 0.34 0 0 Z " fill="#132C48" transform="translate(87,232)"/>
<path d="M0 0 C0.66 1.32 1.32 2.64 2 4 C2.99 4 3.98 4 5 4 C8 5 8 5 9 6.75 C9 9 9 9 6.8125 11.625 C2.75766871 15.04907975 2.75766871 15.04907975 0 16 C-0.66 15.67 -1.32 15.34 -2 15 C-2.05406122 13.06280622 -2.09282025 11.12518079 -2.125 9.1875 C-2.14820312 8.10855469 -2.17140625 7.02960938 -2.1953125 5.91796875 C-2 3 -2 3 0 0 Z " fill="#BCA34E" transform="translate(29,157)"/>
<path d="M0 0 C0.33 0.99 0.66 1.98 1 3 C0.01 4.485 0.01 4.485 -1 6 C-1.66 6 -2.32 6 -3 6 C-3.33 7.32 -3.66 8.64 -4 10 C-5.32 10 -6.64 10 -8 10 C-8 10.66 -8 11.32 -8 12 C-8.99 12 -9.98 12 -11 12 C-11 12.66 -11 13.32 -11 14 C-11.66 14 -12.32 14 -13 14 C-13 15.65 -13 17.3 -13 19 C-14.24735567 19.6509259 -15.49801832 20.29551669 -16.75 20.9375 C-17.44609375 21.29714844 -18.1421875 21.65679687 -18.859375 22.02734375 C-20.90224433 22.95558182 -22.81115376 23.53166578 -25 24 C-25.0928125 22.824375 -25.0928125 22.824375 -25.1875 21.625 C-25.455625 20.75875 -25.72375 19.8925 -26 19 C-28.47636012 17.62533375 -28.47636012 17.62533375 -31 17 C-30.505 15.515 -30.505 15.515 -30 14 C-29.67 14.99 -29.34 15.98 -29 17 C-27.67696283 17.3721042 -26.34262065 17.70630173 -25 18 C-24.67 18.66 -24.34 19.32 -24 20 C-20.1692803 19.45275433 -18.63075544 17.71844729 -16 15 C-15.34 15 -14.68 15 -14 15 C-13.773125 14.4225 -13.54625 13.845 -13.3125 13.25 C-11.66800353 10.43086319 -9.5644533 8.98745131 -7 7 C-6.34 6.01 -5.68 5.02 -5 4 C-4.34 4 -3.68 4 -3 4 C-3 3.34 -3 2.68 -3 2 C-2.01 1.34 -1.02 0.68 0 0 Z " fill="#C5AF6B" transform="translate(137,108)"/>
<path d="M0 0 C0 0.66 0 1.32 0 2 C-1.95597184 3.39712274 -3.9659094 4.71927629 -6 6 C-7.0725 6.7425 -8.145 7.485 -9.25 8.25 C-12 10 -12 10 -14 10 C-14 10.66 -14 11.32 -14 12 C-15.32 12.33 -16.64 12.66 -18 13 C-18 13.66 -18 14.32 -18 15 C-19.609375 16.2890625 -19.609375 16.2890625 -21.75 17.625 C-22.44609375 18.07101563 -23.1421875 18.51703125 -23.859375 18.9765625 C-26 20 -26 20 -30 20 C-29.82763672 18.21142578 -29.82763672 18.21142578 -29 16 C-26.73095703 14.29248047 -26.73095703 14.29248047 -23.7578125 12.6171875 C-22.69175781 12.00746094 -21.62570313 11.39773437 -20.52734375 10.76953125 C-19.40457031 10.14433594 -18.28179687 9.51914062 -17.125 8.875 C-14.91902781 7.62282388 -12.71328806 6.37023815 -10.5078125 5.1171875 C-9.52441895 4.56659668 -8.54102539 4.01600586 -7.52783203 3.44873047 C-1.51027974 0 -1.51027974 0 0 0 Z " fill="#153049" transform="translate(97,20)"/>
<path d="M0 0 C0.66 0.33 1.32 0.66 2 1 C1.34 2.98 0.68 4.96 0 7 C-0.33 7 -0.66 7 -1 7 C-1.33 29.11 -1.66 51.22 -2 74 C-2.66 74 -3.32 74 -4 74 C-4.06966731 65.5155954 -4.1228958 57.03131134 -4.15543652 48.54669094 C-4.17105847 44.60646359 -4.19223273 40.66643268 -4.22631836 36.72631836 C-4.25903646 32.92024378 -4.27687909 29.11435756 -4.28463173 25.30815315 C-4.290153 23.8597524 -4.3009346 22.41136136 -4.31719017 20.96304131 C-4.46889676 6.87984857 -4.46889676 6.87984857 -1 1 C-0.67 0.67 -0.34 0.34 0 0 Z " fill="#17324F" transform="translate(27,79)"/>
<path d="M0 0 C0.33 0 0.66 0 1 0 C1 14.85 1 29.7 1 45 C-3.95 45 -8.9 45 -14 45 C-14 39.06 -14 33.12 -14 27 C-12 29 -12 29 -11.8046875 32.2578125 C-11.82789063 33.53398438 -11.85109375 34.81015625 -11.875 36.125 C-11.89304688 37.40632813 -11.91109375 38.68765625 -11.9296875 40.0078125 C-11.95289063 40.99523437 -11.97609375 41.98265625 -12 43 C-8.04 43.33 -4.08 43.66 0 44 C0 29.48 0 14.96 0 0 Z " fill="#C1B37A" transform="translate(177,79)"/>
<path d="M0 0 C0.33 0 0.66 0 1 0 C1 6.27 1 12.54 1 19 C5.95 19 10.9 19 16 19 C15.67 19.99 15.34 20.98 15 22 C8.73 21.67 2.46 21.34 -4 21 C-4.66 19.35 -5.32 17.7 -6 16 C-4.35 15.34 -2.7 14.68 -1 14 C-0.67 11.03 -0.34 8.06 0 5 C-1.65 5.33 -3.3 5.66 -5 6 C-3.35830472 3.97945196 -1.69088222 1.97956942 0 0 Z " fill="#FAF4DE" transform="translate(162,105)"/>
<path d="M0 0 C0.66 0.66 1.32 1.32 2 2 C1.34 2 0.68 2 0 2 C0.83333333 4.16666667 0.83333333 4.16666667 3 5 C0.36 6.65 -2.28 8.3 -5 10 C-5 9.34 -5 8.68 -5 8 C-5.515625 8.515625 -6.03125 9.03125 -6.5625 9.5625 C-10.02979641 11.60731583 -12.11582655 10.79000138 -16 10 C-17.299375 9.814375 -18.59875 9.62875 -19.9375 9.4375 C-20.948125 9.293125 -21.95875 9.14875 -23 9 C-23 8.67 -23 8.34 -23 8 C-22.14341797 8.01353516 -22.14341797 8.01353516 -21.26953125 8.02734375 C-12.97100209 7.72389992 -6.9666123 4.18215127 0 0 Z " fill="#0B3053" transform="translate(133,218)"/>
<path d="M0 0 C7.50537495 2.85530569 14.991867 6.613398 21 12 C20.01 12 19.02 12 18 12 C17.67 12.66 17.34 13.32 17 14 C15.02 14 13.04 14 11 14 C11.66 13.67 12.32 13.34 13 13 C13 12.34 13 11.68 13 11 C11.68 10.67 10.36 10.34 9 10 C9 10.66 9 11.32 9 12 C8.01 11.67 7.02 11.34 6 11 C6.33 8.69 6.66 6.38 7 4 C5.576875 4.2784375 5.576875 4.2784375 4.125 4.5625 C1 5 1 5 -1 4 C-0.67 2.68 -0.34 1.36 0 0 Z " fill="#EDF0F4" transform="translate(75,226)"/>
<path d="M0 0 C0.17545258 3.207633 0.28121626 6.41402324 0.375 9.625 C0.45041016 10.98044922 0.45041016 10.98044922 0.52734375 12.36328125 C0.67307052 19.01813726 0.67307052 19.01813726 -1.36230469 21.98730469 C-3.0234375 23.6484375 -3.0234375 23.6484375 -6 26 C-6.99 25.67 -7.98 25.34 -9 25 C-7.71937515 23.2925002 -6.38232443 21.62626404 -5 20 C-4.34 20 -3.68 20 -3 20 C-3 15.71 -3 11.42 -3 7 C-4.32 7 -5.64 7 -7 7 C-6.61402985 4.20171644 -6.19863427 3.1794116 -4.0625 1.25 C-2 0 -2 0 0 0 Z " fill="#152E46" transform="translate(162,135)"/>
<path d="M0 0 C0.99 0.33 1.98 0.66 3 1 C-3.27 7.27 -9.54 13.54 -16 20 C-16.33 18.68 -16.66 17.36 -17 16 C-16.34 16 -15.68 16 -15 16 C-14.67 14.02 -14.34 12.04 -14 10 C-12 9.33333333 -10 8.66666667 -8 8 C-7.67 7.01 -7.34 6.02 -7 5 C-6.01 4.67 -5.02 4.34 -4 4 C-3.67 3.34 -3.34 2.68 -3 2 C-2.01 1.34 -1.02 0.68 0 0 Z " fill="#153048" transform="translate(80,170)"/>
<path d="M0 0 C2.8125 0.4375 2.8125 0.4375 6 2 C7.55618544 4.86956181 8.48883922 7.77796404 9 11 C8.67 11.99 8.34 12.98 8 14 C5.03 11.03 2.06 8.06 -1 5 C-2.65 5.66 -4.3 6.32 -6 7 C-6 6.01 -6 5.02 -6 4 C-5.34 4 -4.68 4 -4 4 C-4 3.34 -4 2.68 -4 2 C-3.01 2 -2.02 2 -1 2 C-0.67 1.34 -0.34 0.68 0 0 Z " fill="#E1E8EC" transform="translate(87,144)"/>
<path d="M0 0 C0.66 0.33 1.32 0.66 2 1 C1.67 4.96 1.34 8.92 1 13 C2.03640625 12.91621094 3.0728125 12.83242187 4.140625 12.74609375 C5.51039132 12.64289218 6.88018447 12.54004626 8.25 12.4375 C9.27287109 12.35338867 9.27287109 12.35338867 10.31640625 12.26757812 C13.7420581 12.01813746 16.72701177 11.86120255 20 13 C19.67 13.99 19.34 14.98 19 16 C12.4 15.67 5.8 15.34 -1 15 C-1.09765625 4.16015625 -1.09765625 4.16015625 -1 1 C-0.67 0.67 -0.34 0.34 0 0 Z " fill="#BDAB71" transform="translate(133,79)"/>
<path d="M0 0 C5.14779292 4.62868775 7.40626829 10.56873408 8.3203125 17.390625 C8.41692359 21.11705269 8.09960046 22.8505993 6 26 C5.49453964 23.91798472 4.99583165 21.83432933 4.5 19.75 C4.2215625 18.58984375 3.943125 17.4296875 3.65625 16.234375 C3 13 3 13 3 9 C2.34 9 1.68 9 1 9 C0.67 6.03 0.34 3.06 0 0 Z " fill="#173148" transform="translate(207,70)"/>
<path d="M0 0 C0.66 0 1.32 0 2 0 C0.68066111 3.562215 -1.47899812 5.38045583 -4.4140625 7.70703125 C-7.39295151 10.13563288 -10.10029175 12.87536469 -12.5 15.875 C-14 17 -14 17 -16.5 16.9375 C-19.44702738 15.83236473 -20.37883653 14.64505618 -22 12 C-21.01 11.67 -20.02 11.34 -19 11 C-18.34 11.33 -17.68 11.66 -17 12 C-17 12.66 -17 13.32 -17 14 C-15.02463255 13.65213292 -15.02463255 13.65213292 -13 13 C-12.67 12.34 -12.34 11.68 -12 11 C-11.34 11 -10.68 11 -10 11 C-10 10.34 -10 9.68 -10 9 C-9.34 9 -8.68 9 -8 9 C-7.938125 8.401875 -7.87625 7.80375 -7.8125 7.1875 C-6.66445318 4.09660471 -4.89452948 3.4119656 -2 2 C-1.34 2 -0.68 2 0 2 C0 1.34 0 0.68 0 0 Z " fill="#BEAC66" transform="translate(131,133)"/>
<path d="M0 0 C-0.8125 1.9375 -0.8125 1.9375 -2 4 C-2.99 4.33 -3.98 4.66 -5 5 C-5 5.66 -5 6.32 -5 7 C-6.875 9.125 -6.875 9.125 -9 11 C-9.66 11 -10.32 11 -11 11 C-11.33 11.99 -11.66 12.98 -12 14 C-13.87617698 15.84499398 -15.92737609 17.3683599 -18 19 C-18.33 18.01 -18.66 17.02 -19 16 C-18.67 15.34 -18.34 14.68 -18 14 C-17.34 14 -16.68 14 -16 14 C-15.67 13.34 -15.34 12.68 -15 12 C-14.34 11.01 -13.68 10.02 -13 9 C-11.68 9 -10.36 9 -9 9 C-8.67 7.35 -8.34 5.7 -8 4 C-6.68 3.67 -5.36 3.34 -4 3 C-4 2.34 -4 1.68 -4 1 C-2 0 -2 0 0 0 Z " fill="#F6F1D6" transform="translate(139,105)"/>
<path d="M0 0 C2.475 0.99 2.475 0.99 5 2 C4.06725891 3.12894876 3.12859878 4.25300876 2.1875 5.375 C1.66542969 6.00148437 1.14335937 6.62796875 0.60546875 7.2734375 C-1 9 -1 9 -4 11 C-4.66 10.34 -5.32 9.68 -6 9 C-5.70740515 6.99363529 -5.37366113 4.99285937 -5 3 C-5.33 2.34 -5.66 1.68 -6 1 C-3.03 1.495 -3.03 1.495 0 2 C0 1.34 0 0.68 0 0 Z " fill="#EDEFF2" transform="translate(143,144)"/>
<path d="M0 0 C6 2 6 2 8 4 C6.33333333 5.66666667 4.66666667 7.33333333 3 9 C1.7315625 10.3303125 1.7315625 10.3303125 0.4375 11.6875 C-1.69612724 13.71171046 -3.30823065 14.90335323 -6 16 C-5.67 13.69 -5.34 11.38 -5 9 C-4.030625 8.71125 -3.06125 8.4225 -2.0625 8.125 C1.10664203 7.35785318 1.10664203 7.35785318 2 5 C1.01 4.67 0.02 4.34 -1 4 C-0.67 2.68 -0.34 1.36 0 0 Z " fill="#F7F1E2" transform="translate(50,121)"/>
<path d="M0 0 C0.33 0.66 0.66 1.32 1 2 C-0.9443493 6.53681503 -4.31275832 9.06352405 -7.9921875 12.15234375 C-10.87618979 14.80629917 -12.86186096 17.7259746 -15 21 C-15.33 20.34 -15.66 19.68 -16 19 C-16.66 18.67 -17.32 18.34 -18 18 C-12.06 12.06 -6.12 6.12 0 0 Z " fill="#F6EFD4" transform="translate(156,111)"/>
<path d="M0 0 C0.99 0.66 1.98 1.32 3 2 C1.1875 4.5 1.1875 4.5 -1 7 C-1.99 7 -2.98 7 -4 7 C-4.33 7.99 -4.66 8.98 -5 10 C-7.35747185 13.25168531 -9.6747216 15.74356108 -13 18 C-11.81705962 12.40791819 -10.56665123 10.3212009 -6 7 C-3.91113234 4.73910795 -1.94781285 2.38289133 0 0 Z " fill="#253E56" transform="translate(75,156)"/>
<path d="M0 0 C6.6 0 13.2 0 20 0 C19.01 0.99 18.02 1.98 17 3 C16.34 3 15.68 3 15 3 C14.731875 3.639375 14.46375 4.27875 14.1875 4.9375 C13 7 13 7 10 8 C9.67 8.66 9.34 9.32 9 10 C9 8.68 9 7.36 9 6 C11 4.25 11 4.25 13 3 C12.09507812 3.05220703 12.09507812 3.05220703 11.171875 3.10546875 C10.37265625 3.13253906 9.5734375 3.15960938 8.75 3.1875 C7.96109375 3.22230469 7.1721875 3.25710937 6.359375 3.29296875 C4 3 4 3 0 0 Z " fill="#FBF0D7" transform="translate(132,94)"/>
<path d="M0 0 C3.49353838 1.74676919 5.13945763 2.91405215 7.75 5.625 C8.67039062 6.57246094 8.67039062 6.57246094 9.609375 7.5390625 C10.06828125 8.02117187 10.5271875 8.50328125 11 9 C10.01 9.99 9.02 10.98 8 12 C7.51080078 11.25943359 7.51080078 11.25943359 7.01171875 10.50390625 C6.57472656 9.86324219 6.13773438 9.22257813 5.6875 8.5625 C5.04361328 7.60537109 5.04361328 7.60537109 4.38671875 6.62890625 C2.9965948 4.7114316 2.9965948 4.7114316 0 4 C-2.94900512 6.06430358 -5.52327657 8.3929227 -8 11 C-8.66 10.67 -9.32 10.34 -10 10 C-6.7 6.7 -3.4 3.4 0 0 Z " fill="#DDE5ED" transform="translate(84,169)"/>
<path d="M0 0 C0.66 0 1.32 0 2 0 C2.31320385 3.74772308 2.56814264 7.497209 2.8125 11.25 C2.94688477 12.84521484 2.94688477 12.84521484 3.08398438 14.47265625 C3.2582465 17.38925396 3.35643543 20.09927407 3 23 C0.75 25.53125 0.75 25.53125 -2 27 C-3.27657082 28.07656649 -4.54810982 29.15915357 -5.8125 30.25 C-6.41707031 30.77078125 -7.02164063 31.2915625 -7.64453125 31.828125 C-8.09183594 32.21484375 -8.53914062 32.6015625 -9 33 C-9.66 32.67 -10.32 32.34 -11 32 C-10.2059375 31.44957031 -9.411875 30.89914063 -8.59375 30.33203125 C-2.47698258 25.43478758 -2.47698258 25.43478758 0.52099609 18.41796875 C0.97735742 12.26506916 0.61051282 6.13159799 0 0 Z " fill="#B4C0CB" transform="translate(161,134)"/>
<path d="M0 0 C0.33 0.66 0.66 1.32 1 2 C-0.96556511 7.63461999 -4.9930112 11.84034779 -10 15 C-10.99 14.67 -11.98 14.34 -13 14 C-11.57390841 10.63797061 -9.85651485 8.76324421 -7.0625 6.4375 C-4.60267986 4.3730902 -2.23631078 2.30641457 0 0 Z " fill="#F4EED8" transform="translate(137,130)"/>
<path d="M0 0 C5.29012124 4.40843437 10.18808428 9.07559794 15 14 C11.25 15.125 11.25 15.125 9 14 C9 13.34 9 12.68 9 12 C8.34 12 7.68 12 7 12 C5.63636792 10.02053408 4.30581356 8.0180755 3 6 C2.4225 5.443125 1.845 4.88625 1.25 4.3125 C0 3 0 3 0 0 Z " fill="#F6EFD4" transform="translate(92,129)"/>
<path d="M0 0 C-1 3 -1 3 -2.875 4 C-3.57625 4.33 -4.2775 4.66 -5 5 C-5.4228125 5.51949219 -5.845625 6.03898438 -6.28125 6.57421875 C-8 8 -8 8 -10.6640625 8.14453125 C-12.12972656 7.98017578 -12.12972656 7.98017578 -13.625 7.8125 C-14.60726562 7.71582031 -15.58953125 7.61914062 -16.6015625 7.51953125 C-17.78878906 7.26236328 -17.78878906 7.26236328 -19 7 C-19.33 6.34 -19.66 5.68 -20 5 C-18.86820312 4.72285156 -17.73640625 4.44570312 -16.5703125 4.16015625 C-15.08851098 3.79439512 -13.60674182 3.42850289 -12.125 3.0625 C-11.37863281 2.88009766 -10.63226563 2.69769531 -9.86328125 2.50976562 C-6.61466819 1.70492906 -3.27193292 0 0 0 Z " fill="#EAEEF4" transform="translate(132,237)"/>
<path d="M0 0 C5.29012124 4.40843437 10.18808428 9.07559794 15 14 C14.01 15.485 14.01 15.485 13 17 C12.360625 16.154375 11.72125 15.30875 11.0625 14.4375 C7.61772052 10.26593179 3.333974 7.19146669 -1 4 C-0.67 2.68 -0.34 1.36 0 0 Z " fill="#213951" transform="translate(100,162)"/>
<path d="M0 0 C1.32 0.66 2.64 1.32 4 2 C-1.94 7.445 -1.94 7.445 -8 13 C-8.66 12.34 -9.32 11.68 -10 11 C-8.25 6.125 -8.25 6.125 -6 5 C-5.34 5.33 -4.68 5.66 -4 6 C-4 5.34 -4 4.68 -4 4 C-3.01 4 -2.02 4 -1 4 C-0.67 2.68 -0.34 1.36 0 0 Z " fill="#DEE7ED" transform="translate(157,133)"/>
<path d="M0 0 C0.33 0 0.66 0 1 0 C1.19658808 1.41543415 1.38187546 2.83244031 1.5625 4.25 C1.66691406 5.03890625 1.77132813 5.8278125 1.87890625 6.640625 C2 9 2 9 1.52734375 10.84960938 C0.9525476 13.19350035 0.79172781 15.35578022 0.68359375 17.765625 C0.64169922 18.65507813 0.59980469 19.54453125 0.55664062 20.4609375 C0.49766602 21.84152344 0.49766602 21.84152344 0.4375 23.25 C0.39431641 24.18585938 0.35113281 25.12171875 0.30664062 26.0859375 C0.2008195 28.39048641 0.09873443 30.69513839 0 33 C-0.33 33 -0.66 33 -1 33 C-1.22673326 28.62575083 -1.42813881 24.25068728 -1.625 19.875 C-1.68945312 18.6375 -1.75390625 17.4 -1.8203125 16.125 C-1.871875 14.92617187 -1.9234375 13.72734375 -1.9765625 12.4921875 C-2.02893066 11.39245605 -2.08129883 10.29272461 -2.13525391 9.15966797 C-1.99025277 5.77229489 -1.21602659 3.15004841 0 0 Z " fill="#142E44" transform="translate(12,79)"/>
<path d="M0 0 C-1.72718516 0.96189997 -3.45684058 1.91936508 -5.1875 2.875 C-6.15042969 3.40867187 -7.11335938 3.94234375 -8.10546875 4.4921875 C-10.69739518 5.8423678 -13.26761098 6.97098329 -16 8 C-15.67 7.01 -15.34 6.02 -15 5 C-14.34 5.33 -13.68 5.66 -13 6 C-12.71125 5.21625 -12.4225 4.4325 -12.125 3.625 C-11 1 -11 1 -9 -1 C-5.14143375 -2.21849461 -3.47504878 -1.92236741 0 0 Z " fill="#E2EAF2" transform="translate(68,37)"/>
<path d="M0 0 C3 2 3 2 3.6875 4.625 C3.790625 5.40875 3.89375 6.1925 4 7 C4.804375 7.144375 5.60875 7.28875 6.4375 7.4375 C9 8 9 8 10 9 C10.04063832 10.66617115 10.042721 12.33388095 10 14 C7.64956414 12.01929563 5.32177196 10.01418678 3 8 C2.175 7.29875 1.35 6.5975 0.5 5.875 C0.005 5.25625 -0.49 4.6375 -1 4 C-0.75 1.75 -0.75 1.75 0 0 Z " fill="#BFA963" transform="translate(99,131)"/>
<path d="M0 0 C1 3 1 3 1 6 C-1.53184488 8.35723489 -2.47190093 9 -6 9 C-6 8.34 -6 7.68 -6 7 C-6.99 7 -7.98 7 -9 7 C-9 6.34 -9 5.68 -9 5 C-6.03 3.35 -3.06 1.7 0 0 Z " fill="#152F4B" transform="translate(43,50)"/>
<path d="M0 0 C0.99 0.33 1.98 0.66 3 1 C3 1.99 3 2.98 3 4 C4.6396875 4.0928125 4.6396875 4.0928125 6.3125 4.1875 C10 5 10 5 11.9375 7.5625 C12.288125 8.366875 12.63875 9.17125 13 10 C12.01 10.495 12.01 10.495 11 11 C9.55680308 10.09232898 8.12065894 9.17343894 6.6875 8.25 C5.88699219 7.73953125 5.08648437 7.2290625 4.26171875 6.703125 C1.99631139 4.99722239 0.57315833 3.34191855 -1 1 C-0.67 0.67 -0.34 0.34 0 0 Z " fill="#223D50" transform="translate(19,189)"/>
<path d="M0 0 C-0.33 1.32 -0.66 2.64 -1 4 C-0.34 4 0.32 4 1 4 C1 4.66 1 5.32 1 6 C1.66 6 2.32 6 3 6 C2.67 6.66 2.34 7.32 2 8 C-2.29 5.69 -6.58 3.38 -11 1 C-6.8204355 -1.78637633 -4.85331323 -0.79562512 0 0 Z " fill="#1D374E" transform="translate(44,201)"/>
<path d="M0 0 C0.99 0.33 1.98 0.66 3 1 C-0.3810038 5.13621084 -3.66590534 8.81316569 -8 12 C-8.33 11.01 -8.66 10.02 -9 9 C-8.34 9 -7.68 9 -7 9 C-6.34 7.02 -5.68 5.04 -5 3 C-3.35 2.67 -1.7 2.34 0 2 C0 1.34 0 0.68 0 0 Z " fill="#1E3650" transform="translate(152,160)"/>
<path d="M0 0 C0.66 1.32 1.32 2.64 2 4 C1.01 4.495 1.01 4.495 0 5 C-0.66 4.67 -1.32 4.34 -2 4 C-2.061875 4.556875 -2.12375 5.11375 -2.1875 5.6875 C-3.3717368 9.05802012 -5.25874607 10.7687468 -8 13 C-9.32 12.67 -10.64 12.34 -12 12 C-8.04 8.04 -4.08 4.08 0 0 Z " fill="#F2EACF" transform="translate(76,128)"/>
<path d="M0 0 C4.40908655 1.30833429 8.00349255 3.02391394 11.875 5.5 C12.84179688 6.1084375 13.80859375 6.716875 14.8046875 7.34375 C15.52914062 7.8903125 16.25359375 8.436875 17 9 C17 9.66 17 10.32 17 11 C15.68 10.67 14.36 10.34 13 10 C13 9.34 13 8.68 13 8 C11.35 7.67 9.7 7.34 8 7 C8 6.34 8 5.68 8 5 C5.03 4.505 5.03 4.505 2 4 C2 3.34 2 2.68 2 2 C1.34 2 0.68 2 0 2 C0 1.34 0 0.68 0 0 Z " fill="#172F45" transform="translate(67,204)"/>
<path d="M0 0 C0.99 0.66 1.98 1.32 3 2 C1.35 2.33 -0.3 2.66 -2 3 C-1.67 3.99 -1.34 4.98 -1 6 C-4.79568461 6.97798721 -7.5005999 6.92653069 -11.3125 6.0625 C-12.19550781 5.86785156 -13.07851562 5.67320312 -13.98828125 5.47265625 C-14.98408203 5.23869141 -14.98408203 5.23869141 -16 5 C-16 4.67 -16 4.34 -16 4 C-15.34773438 3.96261719 -14.69546875 3.92523438 -14.0234375 3.88671875 C-8.68377043 3.48506238 -4.6795908 2.83238391 0 0 Z " fill="#243D54" transform="translate(126,222)"/>
<path d="M0 0 C0.68835938 0.55880859 0.68835938 0.55880859 1.390625 1.12890625 C2.00421875 1.60199219 2.6178125 2.07507813 3.25 2.5625 C3.85328125 3.03816406 4.4565625 3.51382813 5.078125 4.00390625 C6.94813901 5.19711788 6.94813901 5.19711788 9.0625 4.78125 C11.7974904 3.67843129 13.77999527 1.91167074 16 0 C14.125 5.875 14.125 5.875 13 7 C8.58007482 7.25499568 4.84104762 7.37241176 1 5 C0.1875 2.375 0.1875 2.375 0 0 Z " fill="#EFE7C5" transform="translate(107,144)"/>
<path d="M0 0 C2.8125 -0.1875 2.8125 -0.1875 6 0 C7.5625 1.4375 7.5625 1.4375 9 3 C10.65821773 3.37309899 12.32577014 3.70700977 14 4 C14.99 4.66 15.98 5.32 17 6 C16.67 6.66 16.34 7.32 16 8 C11.85701333 7.40165275 8.81805623 5.99335715 5.1875 3.9375 C4.21167969 3.38964844 3.23585938 2.84179688 2.23046875 2.27734375 C1.49441406 1.85582031 0.75835937 1.43429688 0 1 C0 0.67 0 0.34 0 0 Z " fill="#1C3349" transform="translate(87,232)"/>
<path d="M0 0 C1.32 0.33 2.64 0.66 4 1 C0.04 4.96 -3.92 8.92 -8 13 C-8.33 12.01 -8.66 11.02 -9 10 C-8.34 10 -7.68 10 -7 10 C-7 9.01 -7 8.02 -7 7 C-5.6875 5.3125 -5.6875 5.3125 -4 4 C-3.01 4 -2.02 4 -1 4 C-0.67 2.68 -0.34 1.36 0 0 Z " fill="#F6EDD3" transform="translate(76,102)"/>
<path d="M0 0 C1.65 0.33 3.3 0.66 5 1 C5.33 1.99 5.66 2.98 6 4 C1.05 6.475 1.05 6.475 -4 9 C-3.67 7.68 -3.34 6.36 -3 5 C-2.34 5 -1.68 5 -1 5 C-1.33 4.01 -1.66 3.02 -2 2 C-1.34 2 -0.68 2 0 2 C0 1.34 0 0.68 0 0 Z " fill="#E3ECF3" transform="translate(76,25)"/>
<path d="M0 0 C-1.40742022 2.81484045 -3.25557592 3.27483399 -6.0625 4.625 C-6.98160156 5.07101563 -7.90070313 5.51703125 -8.84765625 5.9765625 C-9.55792969 6.31429687 -10.26820313 6.65203125 -11 7 C-10.140625 2.234375 -10.140625 2.234375 -8.875 0.125 C-5.87289213 -1.67626472 -3.29820792 -0.68453372 0 0 Z " fill="#19334E" transform="translate(147,227)"/>
<path d="M0 0 C1.32 0 2.64 0 4 0 C4.103125 0.598125 4.20625 1.19625 4.3125 1.8125 C5.10494321 4.33391022 6.11943508 5.19465768 8 7 C8.66666667 8.33333333 9.33333333 9.66666667 10 11 C10.66 11.33 11.32 11.66 12 12 C9 12 9 12 6.51953125 9.8125 C5.62621094 8.884375 4.73289062 7.95625 3.8125 7 C2.91144531 6.071875 2.01039062 5.14375 1.08203125 4.1875 C0.39496094 3.465625 -0.29210937 2.74375 -1 2 C-0.67 1.34 -0.34 0.68 0 0 Z " fill="#0B253E" transform="translate(98,178)"/>
<path d="M0 0 C1.32 0.33 2.64 0.66 4 1 C1.03 3.97 -1.94 6.94 -5 10 C-5.99 9.34 -6.98 8.68 -8 8 C-4.375 3.125 -4.375 3.125 -1 2 C-0.67 1.34 -0.34 0.68 0 0 Z " fill="#BFAB62" transform="translate(50,150)"/>
<path d="M0 0 C0.33 0 0.66 0 1 0 C1 5.61 1 11.22 1 17 C2.65 17 4.3 17 6 17 C5.67 17.66 5.34 18.32 5 19 C4.34 19 3.68 19 3 19 C3 20.65 3 22.3 3 24 C1 23 1 23 0.38110352 21.22167969 C-0.01444158 18.91581142 -0.11345788 16.7917669 -0.09765625 14.453125 C-0.09443359 13.60878906 -0.09121094 12.76445312 -0.08789062 11.89453125 C-0.07951172 11.02183594 -0.07113281 10.14914063 -0.0625 9.25 C-0.05798828 8.36183594 -0.05347656 7.47367188 -0.04882812 6.55859375 C-0.037074 4.37232671 -0.02064249 2.18619821 0 0 Z " fill="#C2BC97" transform="translate(26,155)"/>
<path d="M0 0 C0.66 0.33 1.32 0.66 2 1 C-0.75 6.875 -0.75 6.875 -3 8 C-5.3400417 7.71758117 -7.67504723 7.38749213 -10 7 C-8.67408323 4.34816647 -7.13437549 3.74863527 -4.5625 2.3125 C-3.75941406 1.85488281 -2.95632812 1.39726562 -2.12890625 0.92578125 C-1.42636719 0.62027344 -0.72382813 0.31476563 0 0 Z " fill="#D9E2E9" transform="translate(152,224)"/>
<path d="M0 0 C1.32 1.65 2.64 3.3 4 5 C3.01 5.495 3.01 5.495 2 6 C1.67 6.66 1.34 7.32 1 8 C0.01 8.33 -0.98 8.66 -2 9 C-2.66 9.66 -3.32 10.32 -4 11 C-4.33 10.34 -4.66 9.68 -5 9 C-4.360625 8.071875 -3.72125 7.14375 -3.0625 6.1875 C-0.91377907 3.15780057 -0.91377907 3.15780057 0 0 Z " fill="#E4EBF0" transform="translate(211,182)"/>
<path d="M0 0 C4.2742558 1.5830577 6.26531794 4.50568404 9 8 C7.35 7.67 5.7 7.34 4 7 C4 6.34 4 5.68 4 5 C1.69 4.67 -0.62 4.34 -3 4 C-2.01 2.68 -1.02 1.36 0 0 Z " fill="#F5EBC7" transform="translate(83,121)"/>
<path d="M0 0 C1.65 0 3.3 0 5 0 C5 0.99 5 1.98 5 3 C-1.75 7 -1.75 7 -4 7 C-3.67 5.68 -3.34 4.36 -3 3 C-2.34 3 -1.68 3 -1 3 C-0.67 2.01 -0.34 1.02 0 0 Z " fill="#EAEEF0" transform="translate(38,48)"/>
<path d="M0 0 C4.24480464 -0.33292585 6.35542625 -0.43885872 9.9375 2 C10.618125 2.66 11.29875 3.32 12 4 C8.846632 4.70074844 6.27275026 5 3 5 C3 4.01 3 3.02 3 2 C2.01 1.67 1.02 1.34 0 1 C0 0.67 0 0.34 0 0 Z " fill="#0B2C46" transform="translate(32,186)"/>
<path d="M0 0 C0.33 0.66 0.66 1.32 1 2 C1.66 2.33 2.32 2.66 3 3 C1.7934375 3.4021875 1.7934375 3.4021875 0.5625 3.8125 C-0.283125 4.204375 -1.12875 4.59625 -2 5 C-2.33 5.99 -2.66 6.98 -3 8 C-3.66 8 -4.32 8 -5 8 C-5.12375 8.804375 -5.2475 9.60875 -5.375 10.4375 C-5.58125 11.283125 -5.7875 12.12875 -6 13 C-6.99 13.495 -6.99 13.495 -8 14 C-8.20086443 10.28400809 -8.1519437 9.22791555 -6 6 C-5.34 6 -4.68 6 -4 6 C-3.71125 5.38125 -3.4225 4.7625 -3.125 4.125 C-2 2 -2 2 0 0 Z " fill="#BFB16C" transform="translate(35,146)"/>
<path d="M0 0 C0 0.66 0 1.32 0 2 C-4.12988468 5.02186684 -8.53872816 7.50168777 -13 10 C-13.33 9.01 -13.66 8.02 -14 7 C-12.04480616 5.82807953 -10.0857461 4.6626071 -8.125 3.5 C-7.03445312 2.8503125 -5.94390625 2.200625 -4.8203125 1.53125 C-2 0 -2 0 0 0 Z " fill="#21384E" transform="translate(97,20)"/>
<path d="M0 0 C0.66 0.33 1.32 0.66 2 1 C1.67 5.62 1.34 10.24 1 15 C0.34 15 -0.32 15 -1 15 C-1.33 11.04 -1.66 7.08 -2 3 C-1.34 3 -0.68 3 0 3 C0 2.01 0 1.02 0 0 Z " fill="#FAF4DB" transform="translate(131,79)"/>
<path d="M0 0 C1.32 0 2.64 0 4 0 C4 0.66 4 1.32 4 2 C5.32 2 6.64 2 8 2 C9.75 4 9.75 4 11 6 C10.34 7.32 9.68 8.64 9 10 C8.51789063 9.44570312 8.03578125 8.89140625 7.5390625 8.3203125 C6.90742188 7.59585938 6.27578125 6.87140625 5.625 6.125 C4.99851563 5.40570313 4.37203125 4.68640625 3.7265625 3.9453125 C2.52573166 2.5923402 1.2791655 1.2791655 0 0 Z " fill="#D9E0E6" transform="translate(199,61)"/>
<path d="M0 0 C2 1 2 1 4.5 3.0625 C6.73632248 5.20419056 6.73632248 5.20419056 9 5 C8.67 6.32 8.34 7.64 8 9 C4.04 6.69 0.08 4.38 -4 2 C-2.68 1.34 -1.36 0.68 0 0 Z " fill="#D5DFE7" transform="translate(87,211)"/>
<path d="M0 0 C-0.66 1.65 -1.32 3.3 -2 5 C-3.134375 5.12375 -4.26875 5.2475 -5.4375 5.375 C-7.2009375 5.684375 -7.2009375 5.684375 -9 6 C-9.33 6.66 -9.66 7.32 -10 8 C-10.66 7.34 -11.32 6.68 -12 6 C-10.56839732 4.99157547 -9.12948547 3.99352109 -7.6875 3 C-6.88699219 2.443125 -6.08648437 1.88625 -5.26171875 1.3125 C-3 0 -3 0 0 0 Z " fill="#E1E8EF" transform="translate(205,194)"/>
<path d="M0 0 C0.33 0 0.66 0 1 0 C1.33 2.64 1.66 5.28 2 8 C2.33 8 2.66 8 3 8 C3.375 10.1875 3.375 10.1875 3 13 C1.16038352 14.99022836 -0.79186148 16.38989899 -3 18 C-2.86722656 17.45472656 -2.73445312 16.90945312 -2.59765625 16.34765625 C-1.32210753 10.90097013 -0.53036157 5.56879648 0 0 Z " fill="#0C2D4C" transform="translate(211,163)"/>
<path d="M0 0 C1.32 0.66 2.64 1.32 4 2 C4 2.99 4 3.98 4 5 C0.7 5.33 -2.6 5.66 -6 6 C-4 4 -2 2 0 0 Z " fill="#1B3449" transform="translate(84,148)"/>
<path d="M0 0 C7.42857143 3.14285714 7.42857143 3.14285714 11 5 C11 5.99 11 6.98 11 8 C8.36 7.34 5.72 6.68 3 6 C3 5.01 3 4.02 3 3 C2.01 2.67 1.02 2.34 0 2 C0 1.34 0 0.68 0 0 Z " fill="#203952" transform="translate(125,19)"/>
<path d="M0 0 C0.99 0.33 1.98 0.66 3 1 C2.443125 1.53625 1.88625 2.0725 1.3125 2.625 C-1.29534327 5.30332552 -3.633254 8.10731044 -6 11 C-6.625 9.1875 -6.625 9.1875 -7 7 C-6.34 6.01 -5.68 5.02 -5 4 C-4.34 4 -3.68 4 -3 4 C-3 3.34 -3 2.68 -3 2 C-2.01 1.34 -1.02 0.68 0 0 Z " fill="#1D3850" transform="translate(55,177)"/>
<path d="M0 0 C0.33 0 0.66 0 1 0 C1 2.31 1 4.62 1 7 C1.66 7 2.32 7 3 7 C3 8.32 3 9.64 3 11 C3.99 10.67 4.98 10.34 6 10 C6 10.66 6 11.32 6 12 C4.35 12.33 2.7 12.66 1 13 C0.01 10.36 -0.98 7.72 -2 5 C-1.34 5 -0.68 5 0 5 C0 3.35 0 1.7 0 0 Z " fill="#163552" transform="translate(14,174)"/>
<path d="M0 0 C1.32 0.33 2.64 0.66 4 1 C0.7 4.3 -2.6 7.6 -6 11 C-6.33 10.01 -6.66 9.02 -7 8 C-6.01 7.67 -5.02 7.34 -4 7 C-4 6.34 -4 5.68 -4 5 C-3.34 5 -2.68 5 -2 5 C-1.34 3.35 -0.68 1.7 0 0 Z " fill="#C2A969" transform="translate(141,122)"/>
<path d="M0 0 C-1.38188453 3.21043882 -2.92421903 5.04936365 -5.625 7.25 C-6.57246094 8.03117188 -6.57246094 8.03117188 -7.5390625 8.828125 C-8.02117187 9.21484375 -8.50328125 9.6015625 -9 10 C-9 9.01 -9 8.02 -9 7 C-8.34 7 -7.68 7 -7 7 C-6.896875 6.401875 -6.79375 5.80375 -6.6875 5.1875 C-5.47470998 1.32862265 -4.05869208 0 0 0 Z " fill="#BFAA60" transform="translate(83,120)"/>
<path d="M0 0 C0.66 0.66 1.32 1.32 2 2 C-0.85276137 4.93200474 -3.65079784 7.64315404 -7 10 C-7.66 9.67 -8.32 9.34 -9 9 C-6 6 -3 3 0 0 Z " fill="#C2B26A" transform="translate(72,110)"/>
<path d="M0 0 C1.65 0.33 3.3 0.66 5 1 C5 1.66 5 2.32 5 3 C5.66 3.33 6.32 3.66 7 4 C3.91190305 5.76462683 2.76687864 6 -1 6 C-0.67 4.02 -0.34 2.04 0 0 Z " fill="#0E385A" transform="translate(32,56)"/>
<path d="M0 0 C4.43651689 -0.39145737 7.25241255 0.61517162 11 3 C11.875 5.1875 11.875 5.1875 12 7 C7.69235185 5.43358249 3.93828536 3.31663844 0 1 C0 0.67 0 0.34 0 0 Z " fill="#D5E1E8" transform="translate(136,24)"/>
<path d="M0 0 C4.77609498 1.64178265 8.79382904 4.26546702 13 7 C11.125 8.0625 11.125 8.0625 9 9 C7 8 7 8 6 5 C5.360625 4.855625 4.72125 4.71125 4.0625 4.5625 C2 4 2 4 0.75 1.9375 C0.5025 1.298125 0.255 0.65875 0 0 Z " fill="#122940" transform="translate(88,216)"/>
<path d="M0 0 C1.32 0.33 2.64 0.66 4 1 C1.36 3.64 -1.28 6.28 -4 9 C-4.66 8.34 -5.32 7.68 -6 7 C-4.07423885 4.56070254 -2.19909405 2.19909405 0 0 Z " fill="#BFAC5F" transform="translate(70,130)"/>
<path d="M0 0 C-0.33 0.99 -0.66 1.98 -1 3 C-6.28 2.34 -11.56 1.68 -17 1 C-17 0.67 -17 0.34 -17 0 C-11.06975197 -0.97040422 -5.93609666 -0.89316269 0 0 Z " fill="#BEAC5E" transform="translate(153,92)"/>
<path d="M0 0 C2.97 0.99 5.94 1.98 9 3 C8.01 3.495 8.01 3.495 7 4 C6.67 4.99 6.34 5.98 6 7 C3.36 5.35 0.72 3.7 -2 2 C-1.34 1.34 -0.68 0.68 0 0 Z " fill="#1D3550" transform="translate(146,45)"/>
<path d="M0 0 C0.433125 0.9590625 0.433125 0.9590625 0.875 1.9375 C1.82823451 4.15206079 1.82823451 4.15206079 4 5 C4 4.34 4 3.68 4 3 C4.66 3.33 5.32 3.66 6 4 C4.875 5.5 4.875 5.5 3 7 C-0.1875 7.1875 -0.1875 7.1875 -3 7 C-2.625 4.0625 -2.625 4.0625 -2 1 C-1.34 0.67 -0.68 0.34 0 0 Z " fill="#EEF1F1" transform="translate(192,201)"/>
<path d="M0 0 C2.475 0.99 2.475 0.99 5 2 C5 2.99 5 3.98 5 5 C5.99 5.33 6.98 5.66 8 6 C7.01 6.33 6.02 6.66 5 7 C1.8125 5.0625 1.8125 5.0625 -1 3 C-0.67 2.01 -0.34 1.02 0 0 Z " fill="#E3ECF0" transform="translate(30,177)"/>
<path d="M0 0 C0.66 0.33 1.32 0.66 2 1 C0.52307692 6.66153846 0.52307692 6.66153846 -2.125 8.375 C-2.74375 8.58125 -3.3625 8.7875 -4 9 C-4.6875 7.1875 -4.6875 7.1875 -5 5 C-3.6875 3.25 -3.6875 3.25 -2 2 C-1.34 2 -0.68 2 0 2 C0 1.34 0 0.68 0 0 Z " fill="#F2EAD5" transform="translate(37,166)"/>
<path d="M0 0 C2.9375 0.75 2.9375 0.75 6 2 C6.875 4.125 6.875 4.125 7 6 C6.01 6.33 5.02 6.66 4 7 C2 5.1875 2 5.1875 0 3 C0 2.01 0 1.02 0 0 Z " fill="#1E384E" transform="translate(86,167)"/>
<path d="M0 0 C-5.78571429 4.82142857 -5.78571429 4.82142857 -9 6 C-9.99 5.67 -10.98 5.34 -12 5 C-4.88610478 -0.74031891 -4.88610478 -0.74031891 0 0 Z " fill="#192F44" transform="translate(161,219)"/>
<path d="M0 0 C0.66 0.99 1.32 1.98 2 3 C-0.97 5.475 -0.97 5.475 -4 8 C-4.33 6.35 -4.66 4.7 -5 3 C-3.35 2.67 -1.7 2.34 0 2 C0 1.34 0 0.68 0 0 Z " fill="#18334C" transform="translate(61,188)"/>
<path d="M0 0 C0.66 0.33 1.32 0.66 2 1 C1.1875 3.9375 1.1875 3.9375 0 7 C-0.99 7.33 -1.98 7.66 -3 8 C-3.33 8.66 -3.66 9.32 -4 10 C-4 8.02 -4 6.04 -4 4 C-3.01 3.67 -2.02 3.34 -1 3 C-0.67 2.01 -0.34 1.02 0 0 Z " fill="#1B384F" transform="translate(129,181)"/>
<path d="M0 0 C0.625 1.875 0.625 1.875 1 4 C0.34 4.66 -0.32 5.32 -1 6 C-1.66 5.67 -2.32 5.34 -3 5 C-3 5.99 -3 6.98 -3 8 C-4.98 8.66 -6.96 9.32 -9 10 C-8.06409496 8.8944811 -7.12620142 7.79064547 -6.1875 6.6875 C-5.66542969 6.07261719 -5.14335938 5.45773438 -4.60546875 4.82421875 C-3.12827531 3.14575321 -1.59960869 1.56117966 0 0 Z " fill="#C8B679" transform="translate(45,136)"/>
<path d="M0 0 C1 2 1 2 0.0625 5.125 C-0.288125 6.07375 -0.63875 7.0225 -1 8 C-2.98 8.33 -4.96 8.66 -7 9 C-5.44499019 5.18315774 -2.96404505 2.80804268 0 0 Z " fill="#C1B069" transform="translate(54,127)"/>
<path d="M0 0 C1.875 0.3125 1.875 0.3125 4 1 C4.66 1.99 5.32 2.98 6 4 C4.39125 3.938125 4.39125 3.938125 2.75 3.875 C-0.65747485 3.9885825 -2.20739631 4.21273364 -5 6 C-3.35 4.02 -1.7 2.04 0 0 Z " fill="#BDAF6D" transform="translate(82,100)"/>
<path d="M0 0 C3.7910119 1.44950455 7.3874638 3.15172566 11 5 C10.67 5.66 10.34 6.32 10 7 C8.35 7 6.7 7 5 7 C5 6.34 5 5.68 5 5 C4.360625 4.731875 3.72125 4.46375 3.0625 4.1875 C1 3 1 3 0 0 Z " fill="#E4ECF0" transform="translate(126,37)"/>
<path d="M0 0 C3.0831351 1.19899698 6.06279492 2.47700477 9 4 C8.34 4.66 7.68 5.32 7 6 C7 5.34 7 4.68 7 4 C5.576875 4.2784375 5.576875 4.2784375 4.125 4.5625 C1 5 1 5 -1 4 C-0.67 2.68 -0.34 1.36 0 0 Z " fill="#DBE3EA" transform="translate(75,226)"/>
<path d="M0 0 C0.99 0 1.98 0 3 0 C3.66 0.66 4.32 1.32 5 2 C5.99 2 6.98 2 8 2 C8.66 3.65 9.32 5.3 10 7 C6.4124787 5.66749209 3.1635377 4.169283 0 2 C0 1.34 0 0.68 0 0 Z " fill="#DAE2EB" transform="translate(68,202)"/>
<path d="M0 0 C0.66 0.99 1.32 1.98 2 3 C1.125 5.6875 1.125 5.6875 0 8 C-2.475 7.01 -2.475 7.01 -5 6 C-3.35 4.02 -1.7 2.04 0 0 Z " fill="#E8EBF2" transform="translate(69,184)"/>
<path d="M0 0 C0 3.3408643 -0.32717969 5.11058309 -2 8 C-5.125 8.8125 -5.125 8.8125 -8 9 C-7.04270084 7.87411986 -6.08412105 6.7493285 -5.125 5.625 C-4.59132812 4.99851563 -4.05765625 4.37203125 -3.5078125 3.7265625 C-2.38567993 2.44163349 -1.20628025 1.20628025 0 0 Z " fill="#F5ECD1" transform="translate(55,149)"/>
<path d="M0 0 C4.39683488 1.19913678 7.09840934 2.4288115 10 6 C10 6.66 10 7.32 10 8 C8.0625 7.625 8.0625 7.625 6 7 C5.67 6.34 5.34 5.68 5 5 C4.01 4.67 3.02 4.34 2 4 C0.8125 1.9375 0.8125 1.9375 0 0 Z " fill="#F3EACA" transform="translate(106,121)"/>
<path d="M0 0 C1.1446875 1.175625 1.1446875 1.175625 2.3125 2.375 C4.90891805 5.07257717 4.90891805 5.07257717 8 7 C7.67 8.32 7.34 9.64 7 11 C4.36 8.36 1.72 5.72 -1 3 C-0.67 2.01 -0.34 1.02 0 0 Z " fill="#F2E8CB" transform="translate(87,99)"/>
<path d="M0 0 C0 0.66 0 1.32 0 2 C-2.75 4.6875 -2.75 4.6875 -6 7 C-8.203125 6.64453125 -8.203125 6.64453125 -10 6 C-8.71283353 4.99421411 -7.42011342 3.99553202 -6.125 3 C-5.40570313 2.443125 -4.68640625 1.88625 -3.9453125 1.3125 C-2 0 -2 0 0 0 Z " fill="#D8E0E3" transform="translate(40,71)"/>
<path d="M0 0 C-4.455 2.97 -4.455 2.97 -9 6 C-9.66 5.34 -10.32 4.68 -11 4 C-9.68 3.67 -8.36 3.34 -7 3 C-7 2.01 -7 1.02 -7 0 C-2.25 -1.125 -2.25 -1.125 0 0 Z " fill="#183045" transform="translate(47,66)"/>
<path d="M0 0 C1.27450447 0.59638333 2.54446877 1.20247416 3.8125 1.8125 C4.52019531 2.14894531 5.22789062 2.48539063 5.95703125 2.83203125 C8.01129035 4.00645471 9.41616278 5.25628016 11 7 C9.68 7.33 8.36 7.66 7 8 C7 7.34 7 6.68 7 6 C6.401875 5.71125 5.80375 5.4225 5.1875 5.125 C3 4 3 4 0 2 C0 1.34 0 0.68 0 0 Z " fill="#D9E0EC" transform="translate(158,55)"/>
<path d="M0 0 C0.33 0.99 0.66 1.98 1 3 C-0.8125 5 -0.8125 5 -3 7 C-3.99 7 -4.98 7 -6 7 C-6 5.68 -6 4.36 -6 3 C-4.02 2.01 -2.04 1.02 0 0 Z " fill="#0E2D48" transform="translate(63,52)"/>
<path d="M0 0 C0.99 0 1.98 0 3 0 C3 0.66 3 1.32 3 2 C3.969375 2.268125 4.93875 2.53625 5.9375 2.8125 C7.4534375 3.4003125 7.4534375 3.4003125 9 4 C9.33 4.99 9.66 5.98 10 7 C5.49197399 5.74194623 2.5087188 4.09592835 -1 1 C-0.67 0.67 -0.34 0.34 0 0 Z " fill="#E2E6EA" transform="translate(182,49)"/>
<path d="M0 0 C0.66 0.66 1.32 1.32 2 2 C1.34 2 0.68 2 0 2 C0 1.34 0 0.68 0 0 Z M3 1 C3.66 1.99 4.32 2.98 5 4 C4.67 4.66 4.34 5.32 4 6 C3.67 5.67 3.34 5.34 3 5 C2.34 5.66 1.68 6.32 1 7 C-0.32 5.68 -1.64 4.36 -3 3 C-1.02 2.34 0.96 1.68 3 1 Z " fill="#ECF1F3" transform="translate(131,16)"/>
<path d="M0 0 C2.125 0.375 2.125 0.375 4 1 C4 1.66 4 2.32 4 3 C5.65 3 7.3 3 9 3 C8.01 3.99 7.02 4.98 6 6 C3.36 4.68 0.72 3.36 -2 2 C-1.34 1.34 -0.68 0.68 0 0 Z " fill="#1C3649" transform="translate(61,215)"/>
<path d="M0 0 C0.66 0 1.32 0 2 0 C1.69381595 3.67420866 1.24228216 4.78135513 -1.5625 7.3125 C-2.366875 7.869375 -3.17125 8.42625 -4 9 C-2.25 2.25 -2.25 2.25 0 0 Z " fill="#1C3751" transform="translate(66,165)"/>
<path d="M0 0 C2.375 0.6875 2.375 0.6875 5 2 C6.3125 4.625 6.3125 4.625 7 7 C4.36 6.01 1.72 5.02 -1 4 C-0.67 3.34 -0.34 2.68 0 2 C0 1.34 0 0.68 0 0 Z " fill="#0F2A46" transform="translate(149,33)"/>
<path d="M0 0 C1.8871875 0.061875 1.8871875 0.061875 3.8125 0.125 C1.1659665 2.7715335 -1.74971264 3.72441997 -5.1875 5.125 C-5.1875 4.465 -5.1875 3.805 -5.1875 3.125 C-5.8475 2.795 -6.5075 2.465 -7.1875 2.125 C-4.09861478 0.06574319 -3.47814073 -0.1140374 0 0 Z " fill="#DEE5EE" transform="translate(96.1875,17.875)"/>
<path d="M0 0 C2.475 0.99 2.475 0.99 5 2 C4.34 3.32 3.68 4.64 3 6 C2.34 6 1.68 6 1 6 C0.67 6.66 0.34 7.32 0 8 C0 5.36 0 2.72 0 0 Z " fill="#E7EAF0" transform="translate(176,66)"/>
<path d="M0 0 C0.66 0.33 1.32 0.66 2 1 C2 1.99 2 2.98 2 4 C-0.31 5.32 -2.62 6.64 -5 8 C-5 5 -5 5 -2.5 2.3125 C-1.675 1.549375 -0.85 0.78625 0 0 Z " fill="#1F364B" transform="translate(24,61)"/>
<path d="M0 0 C-1 3 -1 3 -2.75 4.1875 C-5.29960574 5.10819096 -7.30923081 5.14948718 -10 5 C-10 4.34 -10 3.68 -10 3 C-8.70990357 2.49596232 -7.41786211 1.99690074 -6.125 1.5 C-5.04605469 1.08234375 -5.04605469 1.08234375 -3.9453125 0.65625 C-2 0 -2 0 0 0 Z " fill="#D7E2E8" transform="translate(132,237)"/>
<path d="M0 0 C0.99 0.33 1.98 0.66 3 1 C1.02 3.97 1.02 3.97 -1 7 C-1.66 6.67 -2.32 6.34 -3 6 C-2.42655063 3.13275314 -2.1385485 2.1385485 0 0 Z " fill="#E1E8F0" transform="translate(63,164)"/>
<path d="M0 0 C1 3 1 3 0.0625 5.1875 C-0.4634375 6.0846875 -0.4634375 6.0846875 -1 7 C-2.32 6.34 -3.64 5.68 -5 5 C-4.67 4.34 -4.34 3.68 -4 3 C-3.34 3 -2.68 3 -2 3 C-2 2.34 -2 1.68 -2 1 C-1.34 0.67 -0.68 0.34 0 0 Z " fill="#C5AF67" transform="translate(62,120)"/>
<path d="M0 0 C1.98 0.99 3.96 1.98 6 3 C5.67 3.99 5.34 4.98 5 6 C5.66 6.33 6.32 6.66 7 7 C5.68 7 4.36 7 3 7 C0.58152803 4.49515403 0 3.53986194 0 0 Z " fill="#1C3852" transform="translate(62,200)"/>
<path d="M0 0 C0.99 0.66 1.98 1.32 3 2 C2.01 3.485 2.01 3.485 1 5 C-1.625 5.1875 -1.625 5.1875 -4 5 C-4 4.01 -4 3.02 -4 2 C-2.68 1.34 -1.36 0.68 0 0 Z " fill="#17334C" transform="translate(184,188)"/>
<path d="M0 0 C3.16115776 1.36983503 3.9927092 1.9890638 6 5 C5.01 5.495 5.01 5.495 4 6 C4 5.34 4 4.68 4 4 C3.071875 4.309375 3.071875 4.309375 2.125 4.625 C1.42375 4.74875 0.7225 4.8725 0 5 C-0.66 4.34 -1.32 3.68 -2 3 C-1.34 2.01 -0.68 1.02 0 0 Z " fill="#D8DDE5" transform="translate(95,179)"/>
<path d="M0 0 C0.99 0.33 1.98 0.66 3 1 C1.35 2.98 -0.3 4.96 -2 7 C-2.6875 5.1875 -2.6875 5.1875 -3 3 C-1.5625 1.25 -1.5625 1.25 0 0 Z " fill="#DCE4EB" transform="translate(142,148)"/>
<path d="M0 0 C0 0.33 0 0.66 0 1 C-4.32059823 2.09845718 -8.61667943 3.17812739 -13 4 C-12.67 3.01 -12.34 2.02 -12 1 C-8.32433144 -0.61729417 -3.92760325 -0.06546005 0 0 Z " fill="#122842" transform="translate(114,30)"/>
<path d="M0 0 C0.33 0.99 0.66 1.98 1 3 C-1.475 4.485 -1.475 4.485 -4 6 C-4 5.01 -4 4.02 -4 3 C-4.66 2.67 -5.32 2.34 -6 2 C-2.25 0 -2.25 0 0 0 Z " fill="#1E3953" transform="translate(143,213)"/>
<path d="M0 0 C-2.68841859 2.25245881 -4.64641875 3.88213958 -8 5 C-8 4.34 -8 3.68 -8 3 C-7.34 3 -6.68 3 -6 3 C-6 2.01 -6 1.02 -6 0 C-3.50907189 -1.24546405 -2.58919267 -0.7767578 0 0 Z " fill="#1F344C" transform="translate(178,209)"/>
<path d="M0 0 C0.99 0 1.98 0 3 0 C3.33 0.99 3.66 1.98 4 3 C3.01 3.495 3.01 3.495 2 4 C1.34786708 6.02463255 1.34786708 6.02463255 1 8 C-1 5 -1 5 -0.625 2.3125 C-0.41875 1.549375 -0.2125 0.78625 0 0 Z " fill="#0A2B49" transform="translate(163,200)"/>
<path d="M0 0 C0.66 0.33 1.32 0.66 2 1 C1.67 2.65 1.34 4.3 1 6 C-1.86724686 5.42655063 -2.8614515 5.1385485 -5 3 C-2.625 1.4375 -2.625 1.4375 0 0 Z " fill="#1F3E5A" transform="translate(161,201)"/>
<path d="M0 0 C0.99 1.485 0.99 1.485 2 3 C2.53625 3.680625 3.0725 4.36125 3.625 5.0625 C5 7 5 7 5 9 C3.68 8.67 2.36 8.34 1 8 C0.17361624 5.10765685 0 3.11257569 0 0 Z " fill="#D1DEE5" transform="translate(13,182)"/>
<path d="M0 0 C0 0.99 0 1.98 0 3 C-0.66 3 -1.32 3 -2 3 C-1.67 3.99 -1.34 4.98 -1 6 C-2.65 6 -4.3 6 -6 6 C-6 5.01 -6 4.02 -6 3 C-4.02 2.01 -2.04 1.02 0 0 Z " fill="#D8E4ED" transform="translate(102,34)"/>
<path d="M0 0 C0.639375 0.2475 1.27875 0.495 1.9375 0.75 C2.2675 1.74 2.5975 2.73 2.9375 3.75 C0 3.375 0 3.375 -3.0625 2.75 C-3.3925 2.09 -3.7225 1.43 -4.0625 0.75 C-2.0625 -0.25 -2.0625 -0.25 0 0 Z " fill="#0F2B43" transform="translate(71.0625,219.25)"/>
<path d="M0 0 C2.97 1.98 2.97 1.98 6 4 C5.67 4.66 5.34 5.32 5 6 C4.21625 5.649375 3.4325 5.29875 2.625 4.9375 C1.75875 4.628125 0.8925 4.31875 0 4 C-0.99 4.495 -0.99 4.495 -2 5 C-1.34 3.35 -0.68 1.7 0 0 Z " fill="#E8EFF4" transform="translate(19,192)"/>
<path d="M0 0 C0.268125 0.5775 0.53625 1.155 0.8125 1.75 C2.01719859 4.0325868 3.40798115 5.9737942 5 8 C4.01 8.495 4.01 8.495 3 9 C2.34 8.67 1.68 8.34 1 8 C1 7.34 1 6.68 1 6 C0.34 6 -0.32 6 -1 6 C-0.67 4.02 -0.34 2.04 0 0 Z " fill="#152E43" transform="translate(26,174)"/>
<path d="M0 0 C2 2 2 2 2 4 C2.66 4.66 3.32 5.32 4 6 C3.01 6.33 2.02 6.66 1 7 C-0.32 5.35 -1.64 3.7 -3 2 C-2.01 1.34 -1.02 0.68 0 0 Z " fill="#E7F0F3" transform="translate(112,168)"/>
<path d="M0 0 C0.99 0.33 1.98 0.66 3 1 C2.01 2.485 2.01 2.485 1 4 C0.34 4 -0.32 4 -1 4 C-1.33 4.99 -1.66 5.98 -2 7 C-2.6875 5.1875 -2.6875 5.1875 -3 3 C-1.5625 1.25 -1.5625 1.25 0 0 Z " fill="#F6F1D0" transform="translate(30,148)"/>
<path d="M0 0 C0.66 0.99 1.32 1.98 2 3 C1.34 4.32 0.68 5.64 0 7 C-0.99 7 -1.98 7 -3 7 C-1.125 1.125 -1.125 1.125 0 0 Z " fill="#E8ECF2" transform="translate(150,138)"/>
<path d="M0 0 C0.33 0 0.66 0 1 0 C1 2.31 1 4.62 1 7 C0.67 6.34 0.34 5.68 0 5 C-1.65 5.33 -3.3 5.66 -5 6 C-3.35830472 3.97945196 -1.69088222 1.97956942 0 0 Z " fill="#F5E7C1" transform="translate(162,105)"/>
<path d="M0 0 C0.33 0.66 0.66 1.32 1 2 C0.67 2.99 0.34 3.98 0 5 C-1.175625 4.9690625 -1.175625 4.9690625 -2.375 4.9375 C-4.98114961 4.81315937 -4.98114961 4.81315937 -7 6 C-7 5.01 -7 4.02 -7 3 C-4.69 2.01 -2.38 1.02 0 0 Z " fill="#F7F5DB" transform="translate(87,96)"/>
<path d="M0 0 C2.91517292 1.07401108 4.77810176 1.77810176 7 4 C6.34 4 5.68 4 5 4 C4.67 4.66 4.34 5.32 4 6 C3.34 6 2.68 6 2 6 C1.34 4.02 0.68 2.04 0 0 Z " fill="#E6EAF3" transform="translate(169,62)"/>
<path d="M0 0 C0.66 0.66 1.32 1.32 2 2 C0.35 3.98 -1.3 5.96 -3 8 C-4.03348696 4.89953913 -4.17755913 3.94389782 -3 1 C-2.01 0.67 -1.02 0.34 0 0 Z " fill="#D8E0E7" transform="translate(19,63)"/>
<path d="M0 0 C3.57104439 1.87949705 5.54744301 3.17053157 7 7 C6.01 7.495 6.01 7.495 5 8 C4.67 7.01 4.34 6.02 4 5 C1.50240018 3.30117552 1.50240018 3.30117552 -1 2 C-0.67 1.34 -0.34 0.68 0 0 Z " fill="#12283A" transform="translate(198,61)"/>
<path d="M0 0 C1 3 1 3 1 6 C-1.5 7.6875 -1.5 7.6875 -4 9 C-3.71848913 7.68528432 -3.42446661 6.37324233 -3.125 5.0625 C-2.96257813 4.33160156 -2.80015625 3.60070313 -2.6328125 2.84765625 C-2 1 -2 1 0 0 Z " fill="#193A5B" transform="translate(43,50)"/>
<path d="M0 0 C0 0.99 0 1.98 0 3 C-0.66 3 -1.32 3 -2 3 C-2 3.66 -2 4.32 -2 5 C-3.32 5.33 -4.64 5.66 -6 6 C-6 5.01 -6 4.02 -6 3 C-4.02 2.01 -2.04 1.02 0 0 Z " fill="#243B52" transform="translate(66,37)"/>
<path d="M0 0 C-1.375 2 -1.375 2 -3 4 C-3.66 4 -4.32 4 -5 4 C-5.33 2.68 -5.66 1.36 -6 0 C-3.50907189 -1.24546405 -2.58919267 -0.7767578 0 0 Z " fill="#293D52" transform="translate(121,195)"/>
<path d="M0 0 C1.32 0.33 2.64 0.66 4 1 C2.37660195 2.70884005 0.70680947 4.37446717 -1 6 C-1.66 6 -2.32 6 -3 6 C-2 4 -1 2 0 0 Z " fill="#C7D5DD" transform="translate(118,172)"/>
<path d="M0 0 C0.33 0.66 0.66 1.32 1 2 C0.01 3.32 -0.98 4.64 -2 6 C-3.32 5.67 -4.64 5.34 -6 5 C-4.02 3.35 -2.04 1.7 0 0 Z " fill="#F2E7C4" transform="translate(46,158)"/>
<path d="M0 0 C0.99 0.33 1.98 0.66 3 1 C-0.465 3.97 -0.465 3.97 -4 7 C-4.33 6.01 -4.66 5.02 -5 4 C-4.01 4 -3.02 4 -2 4 C-1.34 2.68 -0.68 1.36 0 0 Z " fill="#C0AA62" transform="translate(61,140)"/>
<path d="M0 0 C0.66 0.66 1.32 1.32 2 2 C0.35 3.98 -1.3 5.96 -3 8 C-4.125 4.25 -4.125 4.25 -3 2 C-2.01 2 -1.02 2 0 2 C0 1.34 0 0.68 0 0 Z " fill="#F8EDDF" transform="translate(42,136)"/>
<path d="M0 0 C0.33 0.99 0.66 1.98 1 3 C-0.32 3.99 -1.64 4.98 -3 6 C-3.66 5.67 -4.32 5.34 -5 5 C-4 2 -4 2 -1.9375 0.8125 C-1.298125 0.544375 -0.65875 0.27625 0 0 Z " fill="#FCF5E5" transform="translate(119,122)"/>
<path d="M0 0 C2.97 0.495 2.97 0.495 6 1 C6.33 2.98 6.66 4.96 7 7 C6.34 6.67 5.68 6.34 5 6 C5 5.34 5 4.68 5 4 C4.360625 3.71125 3.72125 3.4225 3.0625 3.125 C1 2 1 2 0 0 Z " fill="#F2E8CE" transform="translate(95,110)"/>
<path d="M0 0 C2.475 0.495 2.475 0.495 5 1 C4.67 2.65 4.34 4.3 4 6 C3.67 5.34 3.34 4.68 3 4 C2.01 3.67 1.02 3.34 0 3 C0 2.01 0 1.02 0 0 Z " fill="#203C53" transform="translate(192,73)"/>
<path d="M0 0 C0.66 0 1.32 0 2 0 C1.625 2.4375 1.625 2.4375 1 5 C0.01 5.495 0.01 5.495 -1 6 C-2.32 5.01 -3.64 4.02 -5 3 C-3.68 3 -2.36 3 -1 3 C-0.67 2.01 -0.34 1.02 0 0 Z " fill="#20405E" transform="translate(189,67)"/>
<path d="M0 0 C2.475 0.99 2.475 0.99 5 2 C1.93882432 4.62386487 1.26826873 5 -3 5 C-3 3 -3 3 -1.5 1.375 C-1.005 0.92125 -0.51 0.4675 0 0 Z " fill="#213B50" transform="translate(54,57)"/>
<path d="M0 0 C-0.75 1.9375 -0.75 1.9375 -2 4 C-4.125 4.75 -4.125 4.75 -6 5 C-5.625 3.0625 -5.625 3.0625 -5 1 C-3 0 -3 0 0 0 Z " fill="#102C45" transform="translate(50,48)"/>
<path d="M0 0 C1.65 0 3.3 0 5 0 C5 0.99 5 1.98 5 3 C4.01 3.33 3.02 3.66 2 4 C1.34 3.67 0.68 3.34 0 3 C0 2.01 0 1.02 0 0 Z " fill="#1D3654" transform="translate(129,233)"/>
<path d="M0 0 C2.64 0 5.28 0 8 0 C7.34 1.32 6.68 2.64 6 4 C4.02 3.01 2.04 2.02 0 1 C0 0.67 0 0.34 0 0 Z " fill="#1E384D" transform="translate(80,228)"/>
<path d="M0 0 C0.66 0.66 1.32 1.32 2 2 C1.34 2 0.68 2 0 2 C-0.33 2.99 -0.66 3.98 -1 5 C-2.65 4.67 -4.3 4.34 -6 4 C-4.03617993 2.49440461 -2.21736634 1.10868317 0 0 Z " fill="#20374F" transform="translate(133,218)"/>
<path d="M0 0 C1.32 0.66 2.64 1.32 4 2 C3.01 2.99 2.02 3.98 1 5 C0.01 4.34 -0.98 3.68 -2 3 C-1.34 2.01 -0.68 1.02 0 0 Z " fill="#E6EAEA" transform="translate(164,195)"/>
<path d="M0 0 C0.99 0.33 1.98 0.66 3 1 C2.34 1 1.68 1 1 1 C1.33 1.99 1.66 2.98 2 4 C0.35 4.66 -1.3 5.32 -3 6 C-1.125 1.125 -1.125 1.125 0 0 Z " fill="#1F3A52" transform="translate(198,193)"/>
<path d="M0 0 C0.33 0.66 0.66 1.32 1 2 C1.66 2.33 2.32 2.66 3 3 C1.02 3.66 -0.96 4.32 -3 5 C-3.33 4.01 -3.66 3.02 -4 2 C-2.68 1.34 -1.36 0.68 0 0 Z " fill="#213D53" transform="translate(177,192)"/>
<path d="M0 0 C-1.39332574 3.36720387 -2.9789286 4.9859524 -6 7 C-5.37162381 3.35541809 -4.14650034 0 0 0 Z " fill="#263D51" transform="translate(143,172)"/>
<path d="M0 0 C1.32 0.33 2.64 0.66 4 1 C2.02 1.99 2.02 1.99 0 3 C0 3.66 0 4.32 0 5 C-0.99 5 -1.98 5 -3 5 C-2.67 4.01 -2.34 3.02 -2 2 C-1.34 2 -0.68 2 0 2 C0 1.34 0 0.68 0 0 Z " fill="#F8EDDD" transform="translate(60,118)"/>
<path d="M0 0 C2.64752004 2.57784846 4.94432065 4.91648098 7 8 C4 8 4 8 1.8125 6.25 C0 4 0 4 0 0 Z " fill="#C0AE6A" transform="translate(99,114)"/>
<path d="M0 0 C0.66 0.66 1.32 1.32 2 2 C1.9765625 4.1640625 1.9765625 4.1640625 1.625 6.625 C1.51414062 7.44226563 1.40328125 8.25953125 1.2890625 9.1015625 C1.19367187 9.72804688 1.09828125 10.35453125 1 11 C0.67 11 0.34 11 0 11 C-1.125 3.375 -1.125 3.375 0 0 Z " fill="#2A4259" transform="translate(13,74)"/>
</svg>
